<?xml version="1.0" encoding="iso-8859-1"?>
<!-- Generator: Adobe Illustrator 16.0.0, SVG Export Plug-In . SVG Version: 6.00 Build 0)  -->
<!DOCTYPE svg PUBLIC "-//W3C//DTD SVG 1.1//EN" "http://www.w3.org/Graphics/SVG/1.1/DTD/svg11.dtd">
<svg version="1.1" id="Capa_1" xmlns="http://www.w3.org/2000/svg" xmlns:xlink="http://www.w3.org/1999/xlink" x="0px" y="0px"
	 width="31.814px" height="31.815px" viewBox="0 0 31.814 31.815" style="enable-background:new 0 0 31.814 31.815;"
	 xml:space="preserve">
<g>
	<path d="M31.814,13.411c0-1.133-0.916-2.049-2.048-2.049c-1.131,0-2.048,0.916-2.048,2.049c0,0.538,0.21,1.026,0.55,1.392
		l-0.852,1.444c-0.142-0.031-0.287-0.049-0.438-0.049c-0.828,0-1.539,0.492-1.861,1.201h-2.029
		c-0.301-0.656-0.934-1.127-1.686-1.191l-0.883-1.509c0.285-0.354,0.457-0.801,0.457-1.288c0-0.468-0.158-0.896-0.421-1.24
		l0.902-1.536c0.024,0.001,0.048,0.003,0.073,0.003c1.131,0,2.047-0.916,2.047-2.047s-0.916-2.048-2.047-2.048
		s-2.049,0.917-2.049,2.048c0,0.44,0.141,0.848,0.379,1.183l-0.92,1.589c-0.004,0-0.009,0-0.014,0c-0.836,0-1.553,0.501-1.871,1.217
		l-2.278,0.013c-0.315-0.723-1.034-1.227-1.872-1.229l-0.898-1.551c0.354-0.369,0.573-0.868,0.573-1.42
		c0-0.474-0.161-0.906-0.431-1.254l0.847-1.46c1.086-0.05,1.952-0.944,1.952-2.044c0-1.131-0.917-2.047-2.048-2.047
		s-2.048,0.916-2.048,2.047c0,0.511,0.188,0.977,0.497,1.335l-0.812,1.375c-0.001,0-0.003,0-0.005,0c-0.87,0-1.611,0.544-1.908,1.31
		H6.269c-0.341-0.659-1.027-1.11-1.819-1.11c-1.131,0-2.049,0.917-2.049,2.048S3.319,10.64,4.45,10.64
		c0.786,0,1.468-0.442,1.812-1.094h2.58c0.317,0.466,0.823,0.792,1.407,0.874l1.03,1.746c-0.266,0.346-0.425,0.776-0.425,1.247
		c0,0.492,0.175,0.944,0.465,1.297l-0.882,1.495c-0.786,0.036-1.456,0.516-1.766,1.196H6.312C5.989,16.692,5.278,16.2,4.45,16.2
		c-1.131,0-2.049,0.917-2.049,2.048c0,0.494,0.177,0.949,0.47,1.305l-0.894,1.561C0.879,21.151,0,22.051,0,23.159
		c0,1.131,0.917,2.047,2.048,2.047s2.048-0.916,2.048-2.047c0-0.494-0.174-0.946-0.465-1.299l0.891-1.565
		c0.719-0.026,1.342-0.421,1.688-1.003h2.564c0.32,0.539,0.879,0.92,1.532,0.992l0.956,1.651c-0.255,0.341-0.408,0.763-0.408,1.224
		c0,0.511,0.188,0.978,0.498,1.336l-0.95,1.642c-1.069,0.067-1.915,0.954-1.915,2.04c0,1.132,0.916,2.049,2.047,2.049
		s2.048-0.917,2.048-2.049c0-0.529-0.202-1.01-0.532-1.373l0.502-0.867c0,0,0.001,0.002,0.002,0.002l0.426-0.734
		c0.762-0.028,1.416-0.473,1.744-1.109h2.384c0.329,0.643,0.987,1.084,1.752,1.109l0.896,1.55c-0.357,0.368-0.579,0.87-0.579,1.424
		c0,1.132,0.917,2.049,2.049,2.049s2.048-0.917,2.048-2.049c0-1.06-0.808-1.933-1.84-2.036l-0.951-1.65
		c0.309-0.357,0.494-0.821,0.494-1.33c0-0.463-0.154-0.885-0.412-1.229l0.965-1.657c0.619-0.092,1.148-0.461,1.457-0.98h2.233
		c0.356,0.601,1.011,1.006,1.761,1.006c1.131,0,2.047-0.917,2.047-2.049c0-0.301-0.065-0.586-0.183-0.842l1.123-1.957
		C31.004,15.347,31.814,14.473,31.814,13.411z M18.928,21.179c-0.843,0-1.566,0.437-1.881,1.164h-2.266
		c-0.314-0.728-1.038-1.235-1.88-1.235c-0.024,0-0.048,0.002-0.073,0.004l-0.82-1.445c0.354-0.367,0.573-0.869,0.573-1.42
		c0-0.521-0.196-0.996-0.517-1.356l0.829-1.433c0.003,0,0.005,0.001,0.008,0.001c0.794,0,1.481-0.453,1.821-1.114h2.384
		c0.328,0.64,0.982,1.082,1.743,1.109l0.829,1.452c-0.312,0.359-0.502,0.828-0.502,1.342c0,0.559,0.225,1.101,0.586,1.471
		l-0.831,1.463C18.931,21.179,18.929,21.179,18.928,21.179z"/>
</g>
<g>
</g>
<g>
</g>
<g>
</g>
<g>
</g>
<g>
</g>
<g>
</g>
<g>
</g>
<g>
</g>
<g>
</g>
<g>
</g>
<g>
</g>
<g>
</g>
<g>
</g>
<g>
</g>
<g>
</g>
</svg>
