<?xml version="1.0" encoding="iso-8859-1"?>
<!-- Generator: Adobe Illustrator 16.0.0, SVG Export Plug-In . SVG Version: 6.00 Build 0)  -->
<!DOCTYPE svg PUBLIC "-//W3C//DTD SVG 1.1//EN" "http://www.w3.org/Graphics/SVG/1.1/DTD/svg11.dtd">
<svg version="1.1" id="Capa_1" xmlns="http://www.w3.org/2000/svg" xmlns:xlink="http://www.w3.org/1999/xlink" x="0px" y="0px"
	 width="106.048px" height="106.048px" viewBox="0 0 106.048 106.048" style="enable-background:new 0 0 106.048 106.048;"
	 xml:space="preserve">
<g>
	<path style="fill:#010002;" d="M84.838,0H21.209C9.543,0,0,9.543,0,21.209v63.629c0,11.666,9.543,21.21,21.209,21.21h63.628
		c11.667,0,21.21-9.544,21.21-21.21V21.209C106.048,9.543,96.505,0,84.838,0z M83.834,35.563c0,0-3.501,3.632-9.176,1.092
		c0,0-2.951,2.662-7.643,0.238c0,0-3.501,2.667-7.208,0.36c0,0-2.118,1.538-4.464,1.124l-0.176,13.619
		c0.104-0.019,0.186-0.039,0.284-0.06c0.011-0.005,4.075-0.875,8.368-2.079c4.138-1.08,8.668-2.835,9.336-3.754
		c-0.057-0.057-0.155-0.101-0.274-0.158c-0.373-0.197-0.989-0.394-1.739-0.546c-1.518-0.308-3.573-0.466-5.64-0.551
		c-4.106-0.147-4.847,0.031-4.919,0.041c-0.005-0.127-2.371,0.282-3.024-2.136c0.021-0.021-0.052-0.116-0.01-0.174
		c0.135-1.662,1.419-1.745,2.465-1.941c1.698-0.223,0.808-0.132,3.097-0.106c3.759,0.282,15.348-0.657,16.797,5.44
		c0,0.17,0.016,0.282,0.037,0.43c-0.492,5.308-11.475,7.617-19.444,9.202c2.708,1.849,4.153,4.257,4.728,7.368
		c0.274,3.319-2.366,6.479-8.481,10.01c4.645,3.288,7.7,6.385,7.451,10.117c-0.425,3.045-3.117,7.115-8.399,9.679
		c-0.021,0.005-0.03,0-0.03,0s0,0-0.011,0c0,0,3.697-5.64,3.945-8.726c0.238-1.75-0.698-4.303-4.846-7.373L54.712,87.66h-0.021
		c-0.021,0.958-0.767,1.725-1.698,1.725c-0.935,0-1.67-0.771-1.704-1.725h-0.041l-0.127-11.278c-4.492,3.2-5.52,5.862-5.276,7.669
		c0.248,3.097,3.945,8.741,3.945,8.741c-0.005,0-0.005,0-0.011,0c-0.01-0.006-0.018,0.005-0.033,0
		c-5.279-2.568-7.969-6.634-8.404-9.679c-0.243-3.732,2.807-6.83,7.457-10.112c-6.121-3.531-8.756-6.695-8.479-10.015
		c0.572-3.112,2.014-5.52,4.72-7.368c-7.964-1.59-18.957-3.895-19.444-9.202c0.016-0.153,0.026-0.264,0.026-0.435
		c1.458-6.097,13.044-5.157,16.803-5.439c2.292-0.026,1.401-0.117,3.102,0.106c1.051,0.197,2.323,0.274,2.459,1.942
		c0.044,0.057-0.025,0.152-0.005,0.173c-0.652,2.418-3.021,2.004-3.027,2.136c-0.075-0.016-0.815-0.189-4.921-0.047
		c-2.066,0.085-4.119,0.243-5.642,0.552c-0.741,0.152-1.367,0.35-1.737,0.546c-0.117,0.057-0.212,0.101-0.267,0.158
		c0.663,0.914,5.201,2.669,9.333,3.754c4.295,1.204,8.355,2.074,8.36,2.079c0.282,0.049,0.494,0.111,0.759,0.166l-0.147-13.723
		c-2.333,0.392-4.438-1.131-4.438-1.131c-3.723,2.307-7.213-0.36-7.213-0.36c-4.697,2.424-7.651-0.238-7.651-0.238
		c-5.678,2.54-9.184-1.092-9.184-1.092c-6.547,1.209-8.95-4.246-8.95-4.246c12.122,1.09,22.064-10.791,24.583-12.854
		c2.512-2.058,4.257-1.569,6.766,2.917c1.665,2.967,4.311,3.325,5.926,3.234l-0.005-0.601c-1.882-0.927-3.208-2.825-3.208-5.056
		c0-3.156,2.563-5.701,5.706-5.701c3.144,0,5.696,2.545,5.696,5.701c0,2.231-1.325,4.129-3.2,5.064l-0.016,0.593
		c1.621,0.09,4.262-0.267,5.93-3.234c2.516-4.486,4.267-4.976,6.772-2.912c2.517,2.063,12.459,13.939,24.586,12.854
		C92.792,31.317,90.384,36.772,83.834,35.563z M50.914,57.906l0.127,11.335c-1.093-0.693-2.217-1.403-3.371-2.133
		c-1.518-0.942-2.224-2.211-2.084-3.071C45.668,62.842,45.251,59.983,50.914,57.906z M55.085,58.088
		c5.157,2.061,4.774,4.785,4.856,5.955c0.141,0.859-0.569,2.133-2.086,3.07c-1,0.637-1.968,1.248-2.916,1.849L55.085,58.088z"/>
</g>
<g>
</g>
<g>
</g>
<g>
</g>
<g>
</g>
<g>
</g>
<g>
</g>
<g>
</g>
<g>
</g>
<g>
</g>
<g>
</g>
<g>
</g>
<g>
</g>
<g>
</g>
<g>
</g>
<g>
</g>
</svg>
