<?xml version="1.0" encoding="iso-8859-1"?>
<!-- Generator: Adobe Illustrator 16.0.0, SVG Export Plug-In . SVG Version: 6.00 Build 0)  -->
<!DOCTYPE svg PUBLIC "-//W3C//DTD SVG 1.1//EN" "http://www.w3.org/Graphics/SVG/1.1/DTD/svg11.dtd">
<svg version="1.1" id="Capa_1" xmlns="http://www.w3.org/2000/svg" xmlns:xlink="http://www.w3.org/1999/xlink" x="0px" y="0px"
	 width="79.538px" height="79.538px" viewBox="0 0 79.538 79.538" style="enable-background:new 0 0 79.538 79.538;"
	 xml:space="preserve">
<g>
	<path style="fill:#010002;" d="M54.951,5.207c-2.506-2.058-4.256-1.569-6.772,2.918c-1.657,2.967-4.309,3.324-5.929,3.234
		l0.013-0.593c1.877-0.935,3.202-2.833,3.202-5.064C45.465,2.545,42.912,0,39.77,0c-3.144,0-5.707,2.545-5.707,5.701
		c0,2.231,1.326,4.129,3.208,5.057l0.005,0.601c-1.615,0.09-4.266-0.267-5.926-3.234c-2.509-4.487-4.259-4.976-6.76-2.918
		C22.065,7.27,12.123,19.151,0.001,18.062c0,0,2.403,5.455,8.951,4.246c0,0,3.5,3.632,9.178,1.092c0,0,2.954,2.662,7.646,0.238
		c0,0,3.49,2.667,7.213,0.36c0,0,2.1,1.522,4.438,1.131l0.147,13.717c-0.264-0.054-0.476-0.111-0.758-0.166
		c0-0.005-4.054-0.875-8.35-2.079c-4.132-1.08-8.671-2.835-9.339-3.749c0.06-0.057,0.148-0.101,0.272-0.158
		c0.365-0.196,0.997-0.394,1.737-0.546c1.517-0.308,3.575-0.466,5.642-0.552c4.106-0.147,4.847,0.031,4.922,0.042
		c0.005-0.127,2.374,0.282,3.026-2.136c-0.026-0.016,0.049-0.117,0.005-0.168c-0.137-1.667-1.414-1.745-2.459-1.941
		c-1.696-0.223-0.811-0.132-3.102-0.106c-3.759,0.282-15.345-0.658-16.803,5.439c0,0.171-0.01,0.282-0.031,0.43
		c0.487,5.308,11.48,7.615,19.444,9.199c-2.706,1.852-4.147,4.259-4.725,7.371c-0.277,3.319,2.359,6.478,8.484,10.01
		c-4.65,3.287-7.705,6.384-7.457,10.117c0.435,3.045,3.123,7.115,8.404,9.684c0.016,0.005,0.021-0.006,0.034,0l0,0
		c0,0,0.005,0,0.015,0c0,0-3.697-5.645-3.945-8.73c-0.244-1.792,0.779-4.464,5.276-7.664l0.127,11.278h0.021
		c0.031,0.958,0.774,1.72,1.704,1.72c0.927,0,1.67-0.767,1.7-1.72h0.016l0.148-10.982c4.142,3.07,5.079,5.628,4.841,7.368
		c-0.243,3.086-3.93,8.73-3.93,8.73s0,0,0.01,0c0,0,0.011,0.005,0.031,0c5.282-2.568,7.975-6.633,8.399-9.678
		c0.248-3.734-2.802-6.83-7.446-10.113c6.11-3.531,8.751-6.695,8.481-10.015c-0.569-3.112-2.02-5.52-4.728-7.368
		c7.969-1.587,18.957-3.894,19.444-9.202c-0.021-0.147-0.031-0.259-0.031-0.43c-1.455-6.097-13.049-5.158-16.809-5.44
		c-2.289-0.025-1.398-0.116-3.097,0.106c-1.051,0.191-2.33,0.27-2.465,1.937c-0.041,0.052,0.031,0.153,0.011,0.174
		c0.652,2.418,3.023,2.004,3.029,2.136c0.067-0.011,0.808-0.189,4.924-0.042c2.062,0.085,4.111,0.238,5.629,0.551
		c0.751,0.153,1.367,0.35,1.74,0.547c0.119,0.057,0.217,0.101,0.274,0.16c-0.668,0.911-5.199,2.667-9.337,3.754
		c-4.292,1.191-8.357,2.061-8.367,2.066c-0.106,0.021-0.187,0.041-0.293,0.06l0.176-13.619c2.349,0.415,4.472-1.124,4.472-1.124
		c3.708,2.307,7.208-0.36,7.208-0.36c4.702,2.423,7.643-0.238,7.643-0.238c5.676,2.54,9.176-1.092,9.176-1.092
		c6.561,1.209,8.969-4.246,8.969-4.246C67.41,19.151,57.468,7.27,54.951,5.207z M32.331,50.782c0.083-1.196-0.329-4.055,5.328-6.131
		l0.127,11.334c-1.093-0.693-2.222-1.402-3.371-2.133C32.898,52.91,32.186,51.642,32.331,50.782z M44.601,53.853
		c-1,0.643-1.968,1.242-2.923,1.849l0.145-10.869c5.165,2.062,4.777,4.784,4.865,5.955C46.827,51.642,46.117,52.91,44.601,53.853z"
		/>
</g>
<g>
</g>
<g>
</g>
<g>
</g>
<g>
</g>
<g>
</g>
<g>
</g>
<g>
</g>
<g>
</g>
<g>
</g>
<g>
</g>
<g>
</g>
<g>
</g>
<g>
</g>
<g>
</g>
<g>
</g>
</svg>
