<?xml version="1.0" encoding="iso-8859-1"?>
<!-- Generator: Adobe Illustrator 16.0.0, SVG Export Plug-In . SVG Version: 6.00 Build 0)  -->
<!DOCTYPE svg PUBLIC "-//W3C//DTD SVG 1.1//EN" "http://www.w3.org/Graphics/SVG/1.1/DTD/svg11.dtd">
<svg version="1.1" id="Capa_1" xmlns="http://www.w3.org/2000/svg" xmlns:xlink="http://www.w3.org/1999/xlink" x="0px" y="0px"
	 width="98.604px" height="98.604px" viewBox="0 0 98.604 98.604" style="enable-background:new 0 0 98.604 98.604;"
	 xml:space="preserve">
<g>
	<g>
		<path d="M70.066,31.927c-7.874,9.439-14.701,12.303-18.027,13.172v-0.963c10.833-3.085,17.422-14.423,17.422-14.423
			c7.418,2.926,14.677,1.098,14.677,1.098c13.215-3.396,12.76-18.548,12.76-18.548c-5.827,18.55-26.326,15.467-27.559,15.274
			c-1.23-0.193-1.615,0.782-1.615,0.782l-0.64,1.34c-4.765,9.287-11.464,12.938-15.046,14.293v-0.945
			c8.893-3.817,14.104-14.284,14.608-15.576c0.558-1.432,1.404-1.281,1.404-1.281c10.781,1.02,17.41-2.331,17.41-2.331
			C100.831,15.975,92.817,0,92.817,0c0.584,21.853-23.524,23.283-25.562,23.454c-2.037,0.171-2.341,2.342-2.341,2.342
			c-3.052,10.209-9.192,14.918-12.876,16.907v-7.429c2.087-0.811,3.568-2.833,3.568-5.207c0-3.603-3.208-5.568-6.28-5.588v-0.002
			c-0.008,0-0.016,0.001-0.024,0.001s-0.016-0.001-0.024-0.001v0.002c-3.073,0.021-6.28,1.986-6.28,5.588
			c0,2.373,1.481,4.396,3.568,5.207v7.429c-3.684-1.988-9.824-6.698-12.876-16.907c0,0-0.305-2.17-2.341-2.342
			C29.311,23.283,5.203,21.853,5.787,0.001c0,0-8.014,15.975,7.356,23.819c0,0,6.629,3.351,17.41,2.331c0,0,0.847-0.151,1.405,1.281
			c0.504,1.292,5.716,11.759,14.608,15.576v0.945c-3.582-1.355-10.281-5.006-15.046-14.293l-0.64-1.34c0,0-0.384-0.975-1.615-0.782
			c-1.232,0.192-21.731,3.275-27.558-15.276c0,0-0.456,15.153,12.759,18.548c0,0,7.259,1.828,14.677-1.098
			c0,0,6.589,11.338,17.422,14.423v0.963c-3.327-0.869-10.153-3.732-18.027-13.172c0,0-14.484,4.861-23.844-4.855
			c0.183,0.355,0.357,0.716,0.546,1.069c1.279,2.384,2.69,4.758,4.196,7.089c4.092,2.685,9.978,3.427,18.297-1.29
			c0,0,11.121,9.974,18.833,11.378v14.986c-0.094-0.014-0.19-0.023-0.288-0.023c-6.041-6.904-5.24-9.039-5.124-9.269
			c0.407-0.796,2.488-0.981,3.542-0.865c1.011,0.117,1.435-0.616,1.55-1.636c0.115-1.018-2.925-2.394-3.944-2.508
			c-0.558-0.064-2.72-0.065-4.453,3.318c-1.425,2.783,0.033,6.684,4.572,12.154c-1.635,0.796-3.296,2.069-3.698,4.034
			c-0.458,2.241,0.8,4.54,3.828,6.983c-1.138,0.845-2.215,2.051-2.386,3.666c-0.191,1.802,0.776,3.541,2.875,5.185
			c-0.707,0.78-1.369,1.864-1.437,3.239c-0.101,2.039,1.118,3.955,3.619,5.695c0.323,0.226,0.693,0.334,1.059,0.334
			c0.096,0,0.189-0.02,0.283-0.035v2.34c0,0.061,0.009,0.121,0.025,0.181l1.408,5.019c0.081,0.289,0.344,0.489,0.644,0.489
			c0.002,0,0.005,0,0.007,0h1.304c0.002,0,0.005,0,0.007,0c0.299,0,0.563-0.2,0.644-0.489l1.408-5.019
			c0.018-0.06,0.025-0.12,0.025-0.181v-2.34c0.094,0.016,0.188,0.035,0.283,0.035c0.365,0,0.735-0.108,1.059-0.334
			c2.501-1.742,3.719-3.658,3.619-5.695c-0.068-1.375-0.729-2.459-1.438-3.239c2.101-1.644,3.067-3.383,2.875-5.185
			c-0.171-1.614-1.248-2.82-2.386-3.666c3.028-2.444,4.287-4.744,3.828-6.983c-0.402-1.965-2.062-3.237-3.698-4.034
			c4.539-5.472,5.997-9.371,4.572-12.154c-1.733-3.384-3.895-3.383-4.453-3.318c-1.019,0.114-4.059,1.49-3.944,2.508
			c0.115,1.02,0.539,1.753,1.551,1.636c1.054-0.116,3.135,0.069,3.542,0.865c0.117,0.229,0.917,2.364-5.124,9.269
			c-0.098,0-0.193,0.01-0.288,0.023V45.318c7.712-1.405,18.833-11.378,18.833-11.378c8.318,4.717,14.205,3.975,18.297,1.29
			c1.505-2.331,2.917-4.705,4.196-7.089c0.188-0.354,0.362-0.714,0.546-1.069C84.55,36.788,70.066,31.927,70.066,31.927z
			 M46.566,86.633c-0.827-0.703-1.278-1.363-1.253-1.868c0.035-0.711,0.972-1.41,1.253-1.585V86.633z M46.566,79.271
			c-2.215-1.359-2.749-2.349-2.709-2.722c0.073-0.695,1.633-1.661,2.709-2.046V79.271z M46.566,70.841
			c-4.381-2.957-4.239-4.427-4.207-4.587c0.229-1.498,3.897-2.111,4.207-2.18V70.841z M52.038,86.633V83.18
			c0.282,0.175,1.219,0.874,1.253,1.585C53.317,85.27,52.865,85.93,52.038,86.633z M52.038,79.271v-4.768
			c1.077,0.385,2.636,1.351,2.709,2.046C54.787,76.924,54.254,77.912,52.038,79.271z M56.245,66.254
			c0.032,0.16,0.174,1.63-4.207,4.587v-6.767C52.348,64.143,56.017,64.756,56.245,66.254z"/>
		<path d="M31.022,44.556c0,0-0.374,3.581-4.364,4.363c0,0,7.161,0.501,13.24-2.349L31.022,44.556z"/>
		<path d="M27.74,38.664c0,0,12.158,5.892,14.993,6.415c0,0-9.622-4.027-14.768-9.174c0,0-7.872,4.881-15.898,3.2
			c1.288,1.808,2.636,3.566,4.031,5.264C19.468,44.752,23.413,43.417,27.74,38.664z"/>
		<path d="M29.605,42.915l10.74,2.461c0,0-4.452-1.784-12.083-5.146c0,0-4.751,5.629-10.925,5.631
			c0.469,0.547,0.946,1.078,1.424,1.608C22.85,48.893,28.409,49.49,29.605,42.915z"/>
		<path d="M67.647,44.556l-8.876,2.015c6.078,2.85,13.239,2.349,13.239,2.349C68.021,48.136,67.647,44.556,67.647,44.556z"/>
		<path d="M70.705,35.904c-5.146,5.147-14.769,9.174-14.769,9.174c2.835-0.522,14.993-6.415,14.993-6.415
			c4.327,4.753,8.272,6.088,11.644,5.704c1.395-1.697,2.743-3.456,4.03-5.264C78.576,40.785,70.705,35.904,70.705,35.904z"/>
		<path d="M70.407,40.229c-7.631,3.363-12.083,5.146-12.083,5.146l10.74-2.461c1.194,6.576,6.754,5.978,10.844,4.554
			c0.478-0.53,0.955-1.061,1.424-1.608C75.159,45.859,70.407,40.229,70.407,40.229z"/>
	</g>
</g>
<g>
</g>
<g>
</g>
<g>
</g>
<g>
</g>
<g>
</g>
<g>
</g>
<g>
</g>
<g>
</g>
<g>
</g>
<g>
</g>
<g>
</g>
<g>
</g>
<g>
</g>
<g>
</g>
<g>
</g>
</svg>
