<?xml version="1.0" encoding="UTF-8" standalone="no"?>
<!-- Created with Inkscape (http://www.inkscape.org/) -->

<svg
   xmlns:dc="http://purl.org/dc/elements/1.1/"
   xmlns:cc="http://creativecommons.org/ns#"
   xmlns:rdf="http://www.w3.org/1999/02/22-rdf-syntax-ns#"
   xmlns:svg="http://www.w3.org/2000/svg"
   xmlns="http://www.w3.org/2000/svg"
   xmlns:sodipodi="http://sodipodi.sourceforge.net/DTD/sodipodi-0.dtd"
   xmlns:inkscape="http://www.inkscape.org/namespaces/inkscape"
   width="594.28571"
   height="594.28571"
   id="svg2837"
   version="1.1"
   inkscape:version="0.48.1 r9760"
   sodipodi:docname="aesculab_staff.svg">
  <defs
     id="defs2839">
    <inkscape:perspective
       sodipodi:type="inkscape:persp3d"
       inkscape:vp_x="0 : 526.18109 : 1"
       inkscape:vp_y="0 : 1000 : 0"
       inkscape:vp_z="744.09448 : 526.18109 : 1"
       inkscape:persp3d-origin="372.04724 : 350.78739 : 1"
       id="perspective2845" />
    <inkscape:perspective
       id="perspective2830"
       inkscape:persp3d-origin="0.5 : 0.33333333 : 1"
       inkscape:vp_z="1 : 0.5 : 1"
       inkscape:vp_y="0 : 1000 : 0"
       inkscape:vp_x="0 : 0.5 : 1"
       sodipodi:type="inkscape:persp3d" />
  </defs>
  <sodipodi:namedview
     id="base"
     pagecolor="#ffffff"
     bordercolor="#666666"
     borderopacity="1.0"
     inkscape:pageopacity="0.0"
     inkscape:pageshadow="2"
     inkscape:zoom="0.35"
     inkscape:cx="-214.28573"
     inkscape:cy="365.43351"
     inkscape:document-units="px"
     inkscape:current-layer="layer1"
     showgrid="false"
     inkscape:window-width="758"
     inkscape:window-height="766"
     inkscape:window-x="767"
     inkscape:window-y="0"
     inkscape:window-maximized="0"
     fit-margin-top="0"
     fit-margin-left="0"
     fit-margin-right="0"
     fit-margin-bottom="0" />
  <metadata
     id="metadata2842">
    <rdf:RDF>
      <cc:Work
         rdf:about="">
        <dc:format>image/svg+xml</dc:format>
        <dc:type
           rdf:resource="http://purl.org/dc/dcmitype/StillImage" />
        <dc:title />
      </cc:Work>
    </rdf:RDF>
  </metadata>
  <g
     inkscape:label="Ebene 1"
     inkscape:groupmode="layer"
     id="layer1"
     transform="translate(-67.142868,-79.505033)">
    <g
       transform="matrix(1.9809524,0,0,1.9809524,-315.0604,-1340.8515)"
       id="g2866"
       inkscape:export-filename="C:\Dokumente und Einstellungen\admin.EDV3.000\Desktop\gesundheit.png"
       inkscape:export-xdpi="60"
       inkscape:export-ydpi="60">
      <rect
         y="717.0069"
         x="192.93915"
         height="300"
         width="300"
         id="rect2864"
         style="fill:#ffffff;fill-opacity:1;stroke:none;opacity:0" />
      <path
         style="fill:#1a1a1a"
         d="m 437.25131,1002.0406 c -1.74447,-2.82436 -2.89568,-5.68393 -2.55747,-6.35537 0.80142,-1.59041 5.843,6.62347 5.77814,9.41387 -0.0345,1.488 -0.94665,0.622 -3.22067,-3.0585 z m -21.68937,4.7055 c 0.49328,-1.0301 1.92479,-2.5132 3.18119,-3.2958 3.77523,-2.3513 9.69477,-11.48033 13.59183,-20.9596 3.97756,-9.67537 4.1143,-18.02943 0.43845,-26.79971 -4.02661,-9.60724 -13.64473,-15.77226 -21.54787,-13.81172 -2.02496,0.50243 -2.90528,-0.27598 -5.98271,-5.28983 -4.24,-6.90791 -3.93788,-7.29676 5.89639,-7.58981 9.04021,-0.26935 19.61484,3.57568 24.80824,9.02064 4.60478,4.82781 9.16109,14.51538 10.32084,21.94394 1.53935,9.86076 -4.79505,24.36581 -16.17676,37.04236 -4.85738,5.41003 -16.04845,12.91173 -14.5296,9.73953 z m 7.56163,-26.81044 c -2.05007,-2.68099 -10.26423,-14.98237 -18.25371,-27.33639 -7.98948,-12.354 -18.99783,-29.11893 -24.46299,-37.25535 l -9.93665,-14.79351 4.44883,-2.302 4.44885,-2.302 4.95215,8.55663 c 2.72368,4.70613 8.63393,15.50552 13.13387,23.99864 4.49996,8.49311 13.29985,24.42541 19.55533,35.40513 11.17194,19.60914 13.48129,25.66317 6.11432,16.02885 z m -39.6066,-26.46709 c -18.40539,6.43016 -31.76323,3.82303 -41.8496,-8.16782 -4.38414,-5.21194 -7.30228,-17.14825 -6.17101,-25.24166 1.67381,-11.97485 10.97368,-24.16118 27.36157,-35.85411 13.93605,-9.94341 21.92519,-19.11799 24.29468,-27.89966 1.13583,-4.20955 0.32223,-10.92101 -1.71838,-14.17496 -2.14354,-3.41809 -10.20569,-8.44585 -14.9103,-9.29843 -4.43465,-0.80367 -18.76261,0.25293 -20.85969,1.53827 -0.85664,0.52504 -2.39151,-1.11796 -4.97224,-5.32255 l -3.7331,-6.08205 5.91343,-2.73714 c 18.28044,-8.46141 39.52325,-7.1235 50.44701,3.17722 13.65202,12.87338 12.8248,34.81243 -1.98295,52.5902 -3.17777,3.81515 -10.15359,9.90965 -18.4753,16.14115 -10.25753,7.68109 -14.23976,11.30813 -17.10684,15.58129 -6.80165,10.13712 -5.92914,23.40148 1.84807,28.09572 6.22683,3.7584 13.5685,3.59039 27.43125,-0.62795 0.94927,-0.28892 2.68187,1.59102 5.10539,5.53951 l 3.66839,5.97663 -3.76467,2.20157 c -2.07057,1.21086 -6.80706,3.26513 -10.52602,4.56428 z m -23.79776,-72.32303 c -1.88594,-1.64894 -18.03376,-26.04584 -41.77647,-63.11792 l -21.79478,-34.03058 8.23445,-5.0542 8.23446,-5.05421 6.55478,12.00679 c 28.43103,52.07876 41.10751,75.56023 44.67025,82.74574 l 4.14884,8.36751 -3.53487,2.59382 c -2.30386,1.69047 -3.95346,2.22781 -4.73666,1.54305 z m -38.83204,-28.64621 c -18.85929,8.27336 -36.64458,9.47111 -50.11981,3.37534 -2.65143,-1.19942 -7.57096,-5.02385 -10.93228,-8.49872 -10.36094,-10.71088 -13.19007,-20.80636 -9.89913,-35.32406 4.45153,-19.63765 14.26895,-29.51404 56.77222,-57.11332 10.1937,-6.61922 19.18007,-12.77913 19.96973,-13.68867 0.78964,-0.90957 5.0144,-2.02815 9.38833,-2.48576 4.37395,-0.45762 9.59167,-1.41229 11.59497,-2.12152 5.20131,-1.84143 5.98419,0.6667 1.4117,4.52266 -5.80142,4.8923 -6.28546,6.67767 -1.73008,6.3816 l 3.79049,-0.24636 -2.22028,2.89619 c -4.1095,5.36055 -9.60632,8.97493 -19.04909,12.52548 -12.49284,4.69742 -39.24767,19.78307 -46.08522,25.98503 -9.71888,8.81549 -16.33472,22.83985 -15.43698,32.72357 0.73938,8.14033 10.22935,17.1602 20.29027,19.28513 7.9772,1.68486 18.83191,-0.35656 27.68208,-5.20611 l 7.95447,-4.35872 4.05509,7.25488 4.05509,7.25487 -4.40222,2.82986 c -2.42125,1.55639 -5.61143,3.36031 -7.08935,4.00865 z m 16.44661,-108.78854 c -0.33451,-0.54502 -1.25077,-0.59653 -2.03613,-0.1145 -0.78536,0.48205 -1.42982,1.49153 -1.43213,2.24329 -0.002,0.75177 0.91395,0.80329 2.03613,0.1145 1.1222,-0.68879 1.76667,-1.69827 1.43213,-2.24329 z m 13.06556,-0.21787 c 0.001,-0.58705 2.82846,-2.66166 6.28282,-4.6102 3.45438,-1.94855 6.57328,-4.12354 6.9309,-4.83335 0.35764,-0.70979 1.03958,-0.65623 1.51542,0.11901 0.68486,1.11582 -0.76,2.34554 -6.93306,5.90076 -4.28903,2.47015 -7.79726,4.01085 -7.79608,3.42378 z m -68.17446,18.37381 c -1.97505,-2.18074 -4.06799,-3.06023 -7.30618,-3.07022 -10.33768,-0.0318 -12.72555,-11.40636 -4.28142,-20.3946 7.40616,-7.88337 15.52816,-10.6915 22.9719,-7.94236 5.69021,2.10152 7.73194,6.58178 6.50919,14.28342 -0.57719,3.63563 -0.41842,7.33217 0.35285,8.21455 1.26118,1.44283 0.55284,2.12568 -7.03804,6.78487 l -8.44033,5.18059 -2.76797,-3.05625 z"
         id="path2858"
         inkscape:connector-curvature="0" />
    </g>
  </g>
</svg>
