<?xml version="1.0" encoding="utf-8"?>
<!-- Generator: Adobe Illustrator 14.0.0, SVG Export Plug-In . SVG Version: 6.00 Build 43363)  -->
<!DOCTYPE svg PUBLIC "-//W3C//DTD SVG 1.0//EN" "http://www.w3.org/TR/2001/REC-SVG-20010904/DTD/svg10.dtd">
<svg version="1.0" id="Layer_1" xmlns="http://www.w3.org/2000/svg" xmlns:xlink="http://www.w3.org/1999/xlink" x="0px" y="0px"
	 width="100px" height="99.942px" viewBox="0 0 100 99.942" enable-background="new 0 0 100 99.942" xml:space="preserve">
<path d="M7.094,53.559h8.896c0.676,0,1.299,0.338,1.672,0.892c0,0,1.696,2.56,3.388,5.101c0.938-8.319,4.207-37.396,4.207-37.396
	c0.112-0.959,0.899-1.717,1.876-1.773c0.971-0.06,1.84,0.588,2.065,1.533c0,0,4.261,17.864,6.277,26.303
	c1.327-3.751,2.668-7.551,2.668-7.551c0.281-0.794,1.034-1.334,1.879-1.338c0.841-0.003,1.602,0.521,1.891,1.315
	c0,0,3.957,10.748,4.75,12.914c2.003,0,7.722,0,7.722,0c0.674,0,1.3,0.338,1.672,0.892c0,0,1.696,2.56,3.387,5.101
	c0.94-8.319,4.208-37.396,4.208-37.396c0.109-0.959,0.896-1.717,1.874-1.773c0.971-0.06,1.844,0.588,2.068,1.533
	c0,0,4.257,17.856,6.273,26.303c1.326-3.751,2.672-7.551,2.672-7.551c0.28-0.794,1.029-1.334,1.873-1.338
	c0.843-0.003,1.607,0.521,1.893,1.315c0,0,3.961,10.748,4.752,12.914c1.382,0,5.481,0,7.892,0l0.42-0.802
	C97.201,46.162,100,33.949,100,25.056C100,13.708,91.741,0,75.647,0C52.649,0,49.693,21.544,49.693,21.544
	S46.841,0.105,23.857,0.105C8.331,0.105,0,13.315,0,25.056c0,10.141,4.44,22.657,6.715,27.799L7.094,53.559z"/>
<path d="M83.658,57.569c-0.843,0-1.593-0.528-1.881-1.312c0,0-1.776-4.823-3.316-9.009c-1.439,4.085-3.072,8.713-3.072,8.713
	c-0.296,0.839-1.105,1.383-1.994,1.33c-0.888-0.041-1.641-0.667-1.844-1.536c0,0-2.866-12.007-5.193-21.762
	c-1.383,12.288-3.541,31.475-3.541,31.475c-0.094,0.832-0.705,1.525-1.525,1.72c-0.821,0.199-1.672-0.135-2.14-0.835
	c0,0-4.86-7.315-5.843-8.784c-1.67,0-8.045,0-8.045,0c-0.839,0-1.591-0.528-1.877-1.312c0,0-1.776-4.823-3.316-9.009
	c-1.446,4.085-3.08,8.713-3.08,8.713c-0.296,0.839-1.105,1.383-1.994,1.33c-0.888-0.041-1.639-0.667-1.849-1.536
	c0,0-2.862-12.007-5.185-21.747c-1.383,12.277-3.539,31.46-3.539,31.46c-0.096,0.832-0.705,1.525-1.523,1.72
	c-0.82,0.199-1.67-0.135-2.142-0.835c0,0-4.86-7.315-5.842-8.784c-0.814,0-3.396,0-5.645,0
	c14.378,25.547,40.422,42.373,40.422,42.373s26.516-16.83,41.122-42.373H83.658z"/>
</svg>
