<?xml version="1.0" encoding="UTF-8" ?>
<!DOCTYPE svg PUBLIC "-//W3C//DTD SVG 1.1//EN" "http://www.w3.org/Graphics/SVG/1.1/DTD/svg11.dtd">
<svg width="300pt" height="223pt" viewBox="0 0 300 223" version="1.1" xmlns="http://www.w3.org/2000/svg">
<path fill="#ffffff" d=" M 0.00 0.00 L 300.00 0.00 L 300.00 223.00 L 96.22 223.00 C 97.78 222.12 99.22 221.05 100.64 219.96 C 98.83 219.92 97.03 219.91 95.23 219.90 C 95.45 220.93 95.66 221.96 95.88 223.00 L 93.25 223.00 C 93.75 221.70 94.20 220.38 94.67 219.06 C 94.20 218.86 93.27 218.47 92.80 218.27 C 91.78 219.78 90.39 221.23 88.55 219.98 C 88.68 220.98 88.81 221.99 88.94 223.00 L 58.64 223.00 C 59.67 222.54 61.80 221.55 60.77 220.13 C 59.00 218.80 57.36 221.39 58.02 223.00 L 55.87 223.00 C 56.09 221.83 56.16 220.66 56.07 219.48 C 54.94 219.71 53.86 220.10 52.82 220.59 C 53.56 221.48 54.40 222.30 55.34 223.00 L 39.35 223.00 C 43.54 221.78 47.92 221.27 52.26 221.95 C 52.28 221.26 52.33 219.89 52.35 219.20 C 47.89 219.53 43.39 220.22 38.93 219.59 C 38.53 220.73 38.14 221.87 37.72 223.00 L 22.67 223.00 C 23.84 221.97 24.94 220.87 26.05 219.79 C 24.24 219.74 22.43 219.71 20.62 219.69 C 21.03 220.79 21.43 221.89 21.84 223.00 L 0.00 223.00 L 0.00 0.00 Z" />
<path fill="#f4804e" d=" M 78.33 2.51 C 83.79 0.87 89.60 6.47 88.07 12.01 C 87.03 17.88 78.94 20.43 74.77 16.12 C 70.09 12.12 72.35 3.73 78.33 2.51 Z" />
<path fill="#a5a5a5" d=" M 15.96 6.14 C 15.61 4.22 18.36 4.02 19.56 3.54 C 18.75 4.40 17.92 5.26 17.09 6.10 C 17.88 7.18 18.66 8.26 19.41 9.37 C 18.09 8.60 15.62 8.23 15.96 6.14 Z" />
<path fill="#979797" d=" M 19.84 3.69 C 20.58 3.83 22.04 4.13 22.78 4.27 C 22.33 4.67 21.44 5.45 21.00 5.84 C 21.85 5.98 22.72 6.12 23.58 6.25 L 23.15 8.67 C 22.76 8.26 21.98 7.43 21.59 7.01 C 21.17 7.42 20.33 8.23 19.91 8.63 C 19.88 6.98 19.86 5.34 19.84 3.69 Z" />
<path fill="#a2a2a2" d=" M 23.72 8.61 C 23.86 6.88 23.91 5.14 24.29 3.44 C 25.40 4.03 26.48 4.67 27.54 5.36 C 26.27 6.45 25.00 7.53 23.72 8.61 Z" />
<path fill="#adadad" d=" M 28.52 7.99 C 28.73 6.35 28.80 4.65 29.69 3.20 C 29.77 3.80 29.94 5.00 30.02 5.59 C 33.32 5.15 36.66 5.26 39.98 5.52 C 39.99 5.09 40.00 4.24 40.01 3.81 L 41.28 3.83 C 41.28 5.37 41.28 6.90 41.28 8.44 C 40.27 7.88 39.27 7.33 38.26 6.77 C 38.47 7.43 38.88 8.75 39.09 9.41 C 38.23 8.78 37.38 8.14 36.53 7.50 C 35.18 9.43 33.61 7.57 32.27 6.78 C 32.40 7.36 32.67 8.51 32.80 9.08 C 31.38 8.72 29.95 8.35 28.52 7.99 Z" />
<path fill="#ababab" d=" M 43.11 3.72 C 44.85 4.42 45.14 5.76 44.33 7.38 C 45.10 6.60 45.89 5.84 46.69 5.08 C 48.81 5.65 50.91 4.90 52.95 4.36 C 53.03 5.78 53.12 7.21 53.21 8.63 C 51.80 8.59 50.39 8.65 48.99 8.78 C 49.25 8.34 49.75 7.46 50.00 7.01 C 49.28 7.01 47.85 7.01 47.13 7.00 C 47.37 7.46 47.85 8.37 48.09 8.82 C 46.61 8.68 45.12 8.61 43.63 8.66 C 43.32 7.03 43.13 5.38 43.11 3.72 Z" />
<path fill="#fafafa" d=" M 74.90 6.65 C 75.96 7.31 77.00 7.99 78.04 8.68 C 77.52 9.30 76.47 10.54 75.95 11.16 C 76.46 11.44 77.49 12.00 78.00 12.28 C 76.71 12.28 75.43 12.27 74.14 12.25 C 75.02 11.14 75.90 10.02 76.79 8.91 C 76.31 8.34 75.37 7.21 74.90 6.65 Z" />
<path fill="#fafafa" d=" M 82.18 10.75 C 83.24 9.42 84.28 8.08 85.34 6.75 C 85.57 8.51 85.81 10.27 86.04 12.03 C 84.76 11.60 83.47 11.17 82.18 10.75 Z" />
<path fill="#61afc9" d=" M 16.05 10.22 C 24.69 10.30 33.34 10.28 41.98 10.24 C 42.34 18.51 42.13 26.78 42.17 35.06 C 33.44 35.08 24.72 35.08 15.99 35.06 C 16.00 26.78 15.91 18.50 16.05 10.22 Z" />
<path fill="#0b9dbc" d=" M 42.91 10.21 C 52.30 10.29 61.71 10.31 71.10 10.20 C 71.76 14.71 75.09 19.23 80.05 19.10 C 85.10 19.46 88.80 14.90 89.38 10.24 C 91.37 10.24 93.37 10.22 95.36 10.18 C 95.44 18.48 95.34 26.78 95.42 35.08 C 77.94 35.07 60.45 35.09 42.96 35.07 C 43.00 26.78 43.03 18.50 42.91 10.21 Z" />
<path fill="#008eb0" d=" M 96.36 10.27 C 158.76 10.26 221.16 10.26 283.57 10.27 C 286.10 14.47 288.74 18.60 291.23 22.82 C 288.64 26.83 286.13 30.89 283.72 35.02 C 221.26 35.12 158.80 35.09 96.34 35.03 C 96.44 26.78 96.41 18.52 96.36 10.27 Z" />
<path fill="#fbcfbc" d=" M 79.48 11.19 C 82.45 9.63 79.65 14.52 79.48 11.19 Z" />
<path fill="#ababab" d=" M 16.12 36.51 C 16.44 37.19 17.09 38.54 17.41 39.22 C 17.71 38.79 18.31 37.92 18.61 37.49 C 22.53 38.05 26.45 37.31 30.36 37.50 C 30.62 38.07 31.14 39.19 31.39 39.75 C 28.27 39.53 25.14 39.19 22.01 39.52 C 20.01 39.65 18.01 39.75 16.01 39.86 C 16.04 39.02 16.09 37.35 16.12 36.51 Z" />
<path fill="#ababab" d=" M 43.54 37.40 C 48.33 38.02 53.22 36.93 57.95 37.93 C 57.32 39.59 55.52 40.89 53.74 40.28 C 50.03 39.18 46.16 39.68 42.37 39.36 C 42.66 38.87 43.25 37.89 43.54 37.40 Z" />
<path fill="#ababab" d=" M 96.19 37.31 C 98.75 37.48 101.33 37.45 103.88 37.09 C 104.21 37.78 104.55 38.47 104.89 39.16 C 103.62 39.58 102.35 40.00 101.08 40.41 C 99.48 39.88 97.84 39.48 96.18 39.20 C 96.18 38.73 96.19 37.79 96.19 37.31 Z" />
<path fill="#ababab" d=" M 106.05 37.45 C 107.96 37.44 109.86 37.41 111.77 37.36 C 111.85 37.96 112.00 39.16 112.07 39.77 C 110.09 39.66 108.11 39.53 106.13 39.42 C 106.11 38.93 106.07 37.94 106.05 37.45 Z" />
<path fill="#bababa" d=" M 112.76 38.90 C 113.73 37.41 115.58 37.16 117.12 36.59 C 117.04 37.43 116.87 39.12 116.79 39.96 C 115.39 39.82 113.90 39.86 112.76 38.90 Z" />
<path fill="#ababab" d=" M 119.25 38.91 C 124.73 35.97 130.96 38.34 136.83 37.53 C 136.86 38.09 136.92 39.23 136.95 39.80 C 131.62 39.55 126.27 39.51 120.94 39.69 C 119.55 39.92 118.27 39.46 117.41 38.33 L 119.09 37.71 L 119.25 38.91 Z" />
<path fill="#c0c0c0" d=" M 137.20 40.04 C 138.05 36.22 142.65 37.57 145.48 37.47 C 143.96 40.73 140.12 39.99 137.20 40.04 Z" />
<path fill="#ababab" d=" M 146.86 36.98 C 150.97 38.16 155.22 37.29 159.39 37.71 C 160.40 38.71 159.09 39.90 157.97 39.69 C 153.93 39.81 149.88 39.42 145.85 39.79 C 146.18 38.85 146.52 37.92 146.86 36.98 Z" />
<path fill="#e2e2e2" d=" M 16.20 41.34 C 17.70 40.10 19.15 42.80 17.77 43.78 C 16.27 45.01 14.82 42.32 16.20 41.34 Z" />
<path fill="#dfdfdf" d=" M 18.33 42.32 C 20.83 41.96 23.35 41.70 25.87 41.47 C 26.16 42.20 26.46 42.94 26.76 43.68 C 25.47 44.12 24.18 44.57 22.89 45.03 C 21.27 44.32 19.70 43.46 18.33 42.32 Z" />
<path fill="#e0e0e0" d=" M 43.16 41.59 C 44.42 40.86 45.45 43.06 44.41 43.84 C 43.13 44.59 42.10 42.37 43.16 41.59 Z" />
<path fill="#e0e0e0" d=" M 48.09 41.44 C 49.47 40.48 50.76 42.90 49.54 43.79 C 48.15 44.76 46.86 42.32 48.09 41.44 Z" />
<path fill="#d4d4d4" d=" M 97.11 41.54 C 98.51 41.74 98.74 42.42 97.81 43.57 C 96.40 43.37 96.17 42.69 97.11 41.54 Z" />
<path fill="#e2e2e2" d=" M 100.72 43.75 C 101.87 42.51 103.24 41.50 104.74 40.71 C 104.82 41.57 104.99 43.30 105.07 44.17 C 103.62 44.04 102.17 43.90 100.72 43.75 Z" />
<path fill="#f4804e" d=" M 139.30 50.39 C 144.86 48.19 151.42 54.19 149.52 59.92 C 148.40 65.09 141.70 67.87 137.36 64.68 C 131.86 61.39 133.04 52.05 139.30 50.39 Z" />
<path fill="#ababab" d=" M 16.29 51.44 C 18.18 52.25 20.22 53.12 22.25 52.17 C 22.26 52.90 22.28 54.38 22.29 55.11 C 21.30 55.28 20.32 55.46 19.33 55.63 C 18.76 55.44 17.63 55.07 17.06 54.88 C 16.81 53.73 16.55 52.58 16.29 51.44 Z" />
<path fill="#adadad" d=" M 25.42 52.42 C 27.51 53.10 24.83 56.34 23.40 55.00 C 22.68 53.77 24.25 52.43 25.42 52.42 Z" />
<path fill="#ababab" d=" M 30.08 51.81 C 31.00 52.26 31.92 52.71 32.84 53.15 C 35.84 52.17 38.93 52.75 41.89 53.57 C 41.85 53.23 41.77 52.55 41.73 52.20 C 45.04 53.19 48.50 52.92 51.85 52.32 C 51.80 52.91 51.69 54.08 51.64 54.66 C 50.70 55.08 49.75 55.49 48.81 55.91 C 48.55 55.51 48.03 54.70 47.77 54.29 C 45.36 55.03 42.88 55.49 40.37 55.55 C 40.01 55.10 39.30 54.20 38.95 53.75 C 38.88 54.18 38.73 55.05 38.66 55.48 C 36.31 55.48 33.93 55.45 31.66 54.79 C 30.78 55.80 29.46 56.03 28.20 56.25 C 28.10 55.39 27.90 53.67 27.80 52.81 L 28.54 52.96 C 28.81 53.41 29.35 54.31 29.62 54.76 C 29.74 54.02 29.97 52.55 30.08 51.81 Z" />
<path fill="#afafaf" d=" M 52.89 51.98 C 56.17 53.46 59.80 53.43 63.08 51.98 C 63.07 52.65 63.05 53.99 63.04 54.67 C 62.01 54.84 61.01 55.12 60.03 55.50 C 58.79 55.13 57.56 54.73 56.33 54.32 C 56.17 54.67 55.85 55.36 55.69 55.71 C 54.83 55.48 53.96 55.25 53.10 55.03 C 53.05 54.27 52.94 52.74 52.89 51.98 Z" />
<path fill="#fbd3c2" d=" M 136.36 55.10 C 136.76 55.06 137.55 54.97 137.94 54.93 C 138.26 56.63 138.59 58.34 138.94 60.04 C 138.28 60.06 136.97 60.10 136.31 60.12 C 137.00 58.48 136.84 56.76 136.36 55.10 Z" />
<path fill="#fafafa" d=" M 139.63 58.57 C 140.88 57.40 141.79 55.93 142.64 54.45 C 142.82 56.26 143.05 58.06 143.25 59.87 C 142.05 59.42 140.84 58.98 139.63 58.57 Z" />
<path fill="#ffffff" d=" M 145.49 54.44 C 146.62 55.44 146.58 56.93 146.70 58.31 C 146.94 58.71 147.42 59.50 147.66 59.90 C 147.09 59.94 145.95 60.03 145.38 60.07 C 145.49 58.20 145.49 56.32 145.49 54.44 Z" />
<path fill="#a0be78" d=" M 16.00 57.99 C 54.87 57.98 93.75 57.95 132.63 58.01 C 133.27 60.27 133.79 62.77 135.65 64.39 C 138.75 67.63 144.37 67.75 147.63 64.69 C 149.68 63.04 150.23 60.36 151.06 58.00 C 159.25 57.95 167.45 58.00 175.64 57.97 C 175.70 66.31 175.72 74.65 175.63 82.99 C 122.42 82.84 69.22 82.95 16.01 82.94 C 15.96 74.62 15.98 66.31 16.00 57.99 Z" />
<path fill="#5a9116" d=" M 176.74 58.13 L 177.72 58.02 C 177.43 65.85 177.43 73.69 177.63 81.53 C 188.55 81.71 199.48 81.70 210.41 81.55 C 210.59 73.71 210.63 65.87 210.35 58.03 L 211.25 58.08 C 211.21 66.31 211.24 74.53 211.23 82.76 C 199.74 82.63 188.25 82.63 176.76 82.76 C 176.76 74.55 176.79 66.34 176.74 58.13 Z" />
<path fill="#86ad52" d=" M 177.72 58.02 C 188.59 57.96 199.47 57.94 210.35 58.03 C 210.63 65.87 210.59 73.71 210.41 81.55 C 199.48 81.70 188.55 81.71 177.63 81.53 C 177.43 73.69 177.43 65.85 177.72 58.02 Z" />
<path fill="#5e892b" d=" M 212.25 58.02 C 236.06 57.97 259.87 57.92 283.68 58.05 C 286.09 62.20 288.62 66.29 291.24 70.32 C 288.79 74.55 286.10 78.63 283.66 82.87 C 259.86 82.99 236.05 82.90 212.25 82.91 C 212.31 74.61 212.31 66.32 212.25 58.02 Z" />
<path fill="#ababab" d=" M 16.16 84.17 C 18.23 84.69 20.29 85.21 22.36 85.71 C 22.84 85.30 23.80 84.50 24.28 84.09 C 24.46 84.57 24.82 85.54 25.00 86.02 C 24.89 86.34 24.69 86.99 24.59 87.31 C 21.79 87.44 18.99 87.47 16.20 87.67 C 16.18 86.50 16.17 85.34 16.16 84.17 Z" />
<path fill="#ababab" d=" M 25.98 86.08 C 27.59 83.90 30.82 84.93 33.14 84.96 C 33.08 85.58 32.96 86.83 32.90 87.45 C 30.59 87.43 28.28 87.58 25.97 87.50 C 25.97 87.14 25.98 86.43 25.98 86.08 Z" />
<path fill="#ababab" d=" M 176.86 84.27 C 181.05 86.06 185.68 84.88 190.06 84.76 C 192.03 85.09 194.01 85.34 196.00 85.40 C 195.90 85.97 195.70 87.09 195.60 87.65 C 193.43 87.32 191.26 87.00 189.10 86.71 C 185.11 87.92 180.91 87.09 176.84 87.60 C 176.84 86.49 176.85 85.38 176.86 84.27 Z" />
<path fill="#ababab" d=" M 211.60 86.33 C 212.73 84.31 215.07 84.78 216.96 85.06 C 217.45 84.89 218.41 84.55 218.90 84.38 C 219.56 85.04 220.23 85.69 220.90 86.35 C 219.56 87.28 216.51 87.67 218.01 89.87 C 218.56 90.12 219.65 90.63 220.19 90.88 C 217.55 91.06 214.92 91.38 212.30 91.76 C 212.71 91.14 213.13 90.52 213.55 89.90 C 214.31 89.55 215.07 89.19 215.81 88.79 C 216.94 86.49 212.71 87.28 211.60 86.33 Z" />
<path fill="#e2e2e2" d=" M 16.19 89.26 C 17.69 88.07 19.15 90.75 17.76 91.72 C 16.26 92.90 14.80 90.23 16.19 89.26 Z" />
<path fill="#dfdfdf" d=" M 18.33 90.16 C 21.46 89.75 24.60 89.54 27.73 89.27 C 28.09 90.09 28.46 90.92 28.82 91.75 C 26.73 91.71 24.60 91.71 22.59 92.37 C 21.01 91.99 19.50 91.32 18.33 90.16 Z" />
<path fill="#e0e0e0" d=" M 176.96 88.81 C 179.06 88.92 181.15 89.19 183.15 89.85 C 182.84 90.36 182.23 91.38 181.92 91.89 C 180.23 91.85 178.55 91.81 176.87 91.78 C 176.89 91.04 176.94 89.56 176.96 88.81 Z" />
<path fill="#dedede" d=" M 186.29 89.38 C 187.80 89.34 187.47 91.80 186.21 91.95 C 184.69 91.99 185.04 89.54 186.29 89.38 Z" />
<path fill="#dedede" d=" M 187.58 88.95 C 188.45 88.99 190.18 89.06 191.04 89.09 C 190.98 89.85 190.86 91.36 190.79 92.11 C 188.97 91.75 187.08 91.29 187.58 88.95 Z" />
<path fill="#ababab" d=" M 57.07 97.36 C 58.32 97.66 59.57 97.95 60.83 98.25 C 61.14 99.33 61.46 100.42 61.78 101.51 C 60.03 101.39 58.28 101.31 56.54 101.23 L 56.43 99.65 C 57.07 99.71 58.36 99.82 59.00 99.88 L 59.00 99.02 C 58.42 99.08 57.25 99.19 56.67 99.25 C 56.77 98.78 56.97 97.83 57.07 97.36 Z" />
<path fill="#ababab" d=" M 84.91 98.86 C 85.00 98.47 85.18 97.70 85.26 97.32 C 86.80 98.66 88.79 99.15 90.71 99.69 C 90.73 99.29 90.78 98.48 90.81 98.07 C 93.73 98.93 96.78 98.67 99.78 98.65 C 100.06 98.21 100.62 97.33 100.89 96.89 C 100.92 98.33 100.95 99.78 100.97 101.24 C 97.20 100.93 93.41 100.14 89.67 101.29 C 88.82 100.28 88.01 100.23 87.35 101.42 C 86.56 101.18 85.77 100.94 84.99 100.70 C 84.57 100.91 83.73 101.33 83.31 101.54 C 82.43 101.16 81.56 100.78 80.69 100.40 C 80.26 100.56 79.39 100.87 78.96 101.03 C 78.87 100.21 78.68 98.58 78.59 97.76 C 80.65 98.36 82.76 98.75 84.91 98.86 Z" />
<path fill="#f4814f" d=" M 133.04 98.10 C 137.29 95.62 142.77 99.35 142.71 104.11 L 142.70 104.48 C 141.95 108.94 136.58 112.07 132.61 109.32 C 128.40 106.99 128.65 100.10 133.04 98.10 Z" />
<path fill="#bebebe" d=" M 54.32 98.52 C 55.60 97.87 56.49 100.14 55.67 100.99 C 54.38 101.66 53.48 99.38 54.32 98.52 Z" />
<path fill="#ababab" d=" M 62.94 97.77 C 65.44 96.47 67.59 100.63 69.57 98.63 C 69.89 98.67 70.52 98.76 70.84 98.81 C 72.30 98.26 73.76 97.71 75.23 97.19 L 75.25 98.36 C 74.16 98.97 73.39 99.91 73.02 101.09 C 70.78 101.22 68.53 101.29 66.28 101.37 C 65.17 100.17 64.05 98.96 62.94 97.77 Z" />
<path fill="#999999" d=" M 77.11 99.28 C 80.43 99.49 75.55 102.27 77.11 99.28 Z" />
<path fill="#fafafa" d=" M 131.67 105.85 C 131.80 104.08 132.17 102.34 132.63 100.64 C 132.60 101.49 132.52 103.20 132.49 104.05 C 132.98 104.08 133.97 104.14 134.46 104.17 C 134.73 103.41 135.28 101.89 135.55 101.13 C 136.80 101.68 137.93 104.57 139.21 103.53 C 138.98 102.86 138.52 101.52 138.30 100.85 C 138.96 101.06 140.28 101.50 140.94 101.71 C 140.37 102.73 140.25 104.16 139.26 104.87 C 138.08 105.10 136.86 105.11 135.67 105.27 L 135.50 104.55 C 134.33 105.27 133.13 106.13 131.67 105.85 Z" />
<path fill="#dce6cc" d=" M 54.17 103.97 C 76.42 103.64 98.68 104.01 120.94 103.81 C 123.29 103.81 125.65 103.74 127.99 104.07 C 130.37 107.22 129.58 111.43 129.75 115.13 C 104.56 115.40 79.36 115.41 54.18 115.11 C 54.21 111.39 54.20 107.68 54.17 103.97 Z" />
<path fill="#bdd1a0" d=" M 142.71 104.11 C 146.03 103.94 149.35 103.89 152.67 103.89 C 152.75 107.68 152.75 111.48 152.68 115.27 C 145.39 115.26 138.11 115.29 130.82 115.24 C 130.81 113.40 130.81 111.56 130.80 109.72 C 133.15 110.42 135.59 111.80 138.09 110.96 C 140.89 110.20 143.37 107.57 142.70 104.48 L 142.71 104.11 Z" />
<path fill="#a0be78" d=" M 153.74 103.92 C 161.06 103.93 168.37 103.93 175.69 103.92 C 175.68 107.71 175.68 111.49 175.70 115.28 C 168.37 115.22 161.05 115.30 153.73 115.23 C 153.74 111.46 153.74 107.69 153.74 103.92 Z" />
<path fill="#548e11" d=" M 176.74 104.08 C 183.99 104.13 191.23 104.11 198.47 104.08 C 198.40 107.78 198.41 111.49 198.47 115.20 C 191.23 115.18 183.99 115.17 176.75 115.20 C 176.78 111.49 176.78 107.79 176.74 104.08 Z" />
<path fill="#497912" d=" M 199.62 103.92 C 227.67 103.97 255.71 103.86 283.76 103.98 C 284.06 104.50 284.66 105.56 284.96 106.08 C 280.79 104.69 276.34 104.80 272.00 104.88 C 248.37 105.04 224.74 104.70 201.11 105.00 C 201.08 107.98 201.05 110.95 201.03 113.92 C 228.93 113.79 256.85 114.30 284.74 113.68 C 283.79 114.93 282.54 115.46 281.01 115.25 C 253.88 115.21 226.75 115.22 199.61 115.25 C 199.66 111.47 199.66 107.70 199.62 103.92 Z" />
<path fill="#86ad52" d=" M 177.57 104.71 C 184.21 104.63 190.84 104.62 197.48 104.66 C 197.61 107.90 197.62 111.16 197.53 114.41 C 190.86 114.60 184.19 114.59 177.52 114.42 C 177.44 111.18 177.45 107.95 177.57 104.71 Z" />
<path fill="#5e892b" d=" M 201.11 105.00 C 224.74 104.70 248.37 105.04 272.00 104.88 C 276.34 104.80 280.79 104.69 284.96 106.08 C 285.88 107.18 286.63 108.41 287.42 109.61 C 286.54 110.94 285.67 112.29 284.87 113.68 L 284.74 113.68 C 256.85 114.30 228.93 113.79 201.03 113.92 C 201.05 110.95 201.08 107.98 201.11 105.00 Z" />
<path fill="#ababab" d=" M 54.12 117.42 C 59.12 116.56 64.38 119.16 69.12 117.12 C 69.03 117.82 68.84 119.24 68.75 119.94 C 63.95 118.66 58.94 121.19 54.31 119.51 C 54.26 118.99 54.17 117.94 54.12 117.42 Z" />
<path fill="#ababab" d=" M 130.56 117.00 C 133.66 117.68 136.83 117.89 140.00 117.76 C 138.33 120.97 134.36 119.75 131.46 119.55 C 131.23 118.91 130.78 117.63 130.56 117.00 Z" />
<path fill="#ababab" d=" M 153.88 116.94 C 156.32 117.72 158.88 117.90 161.42 117.53 C 165.45 117.62 169.50 117.47 173.52 117.98 C 173.23 118.37 172.66 119.17 172.38 119.57 C 166.22 119.85 160.03 119.30 153.88 119.99 C 153.88 119.23 153.88 117.70 153.88 116.94 Z" />
<path fill="#ababab" d=" M 176.54 117.46 C 178.98 117.59 181.43 117.57 183.86 117.23 C 184.22 117.71 184.94 118.66 185.30 119.14 C 184.03 119.66 182.76 120.19 181.49 120.72 C 179.85 120.15 178.20 119.63 176.53 119.15 C 176.53 118.73 176.54 117.88 176.54 117.46 Z" />
<path fill="#ababab" d=" M 199.26 117.29 C 202.20 117.52 205.13 117.74 208.06 118.06 C 207.52 119.09 206.99 120.12 206.45 121.15 C 206.30 120.66 206.00 119.68 205.85 119.18 C 203.95 119.49 202.04 119.77 200.14 120.05 C 199.85 119.13 199.55 118.21 199.26 117.29 Z" />
<path fill="#ababab" d=" M 208.97 117.37 C 211.33 117.66 213.72 117.58 216.07 117.19 C 216.39 117.64 217.02 118.54 217.34 118.99 C 216.20 119.65 215.06 120.32 213.92 120.99 C 212.89 120.40 211.86 119.82 210.83 119.24 C 210.37 119.35 209.44 119.56 208.98 119.67 C 208.98 119.09 208.98 117.94 208.97 117.37 Z" />
<path fill="#f9f9f9" d=" M 55.25 118.30 C 55.77 118.82 55.77 118.82 55.25 118.30 Z" />
<path fill="#e2e2e2" d=" M 55.16 121.25 C 56.78 121.30 56.60 124.02 55.05 124.04 C 53.43 123.98 53.62 121.27 55.16 121.25 Z" />
<path fill="#e0e0e0" d=" M 177.05 121.25 C 179.13 121.58 181.19 121.95 183.24 122.39 C 181.66 124.34 179.26 124.41 176.93 124.30 C 176.96 123.54 177.02 122.01 177.05 121.25 Z" />
<path fill="#dddddd" d=" M 199.47 123.75 C 200.67 120.34 206.35 120.79 207.55 124.02 C 204.85 124.03 202.16 123.96 199.47 123.75 Z" />
<path fill="#dddddd" d=" M 56.91 122.27 C 60.28 122.64 64.77 120.77 67.29 123.71 C 65.13 124.12 62.97 124.51 60.82 124.96 C 59.49 124.16 57.26 124.09 56.91 122.27 Z" />
<path fill="#ababab" d=" M 131.13 125.69 C 131.21 124.70 130.08 122.36 131.81 122.42 C 135.38 122.70 138.97 122.89 142.50 123.48 C 143.56 123.12 144.62 122.76 145.68 122.41 C 145.53 123.07 145.23 124.37 145.08 125.03 C 140.40 124.59 135.76 124.99 131.13 125.69 Z" />
<path fill="#ababab" d=" M 153.42 122.32 C 155.60 123.30 157.88 123.46 160.06 122.38 C 160.71 123.01 161.36 123.64 162.02 124.28 C 160.68 124.88 159.35 125.49 158.03 126.11 C 156.26 125.15 153.62 124.78 153.42 122.32 Z" />
<path fill="#d9d9d9" d=" M 185.26 123.96 C 186.11 121.17 191.64 120.33 191.39 124.06 C 189.35 124.06 187.30 124.03 185.26 123.96 Z" />
<path fill="#dfdfdf" d=" M 130.92 127.38 C 132.78 127.39 134.64 127.35 136.49 127.24 C 137.55 130.76 133.17 129.99 131.02 130.14 C 130.99 129.45 130.94 128.07 130.92 127.38 Z" />
<path fill="#dcdcdc" d=" M 140.03 126.84 C 140.51 127.49 140.99 128.15 141.48 128.81 C 142.46 127.96 143.57 127.28 144.74 126.73 C 144.85 127.47 145.07 128.95 145.17 129.69 C 143.43 129.79 141.69 129.89 139.95 130.00 C 139.97 129.21 140.01 127.63 140.03 126.84 Z" />
<path fill="#dddddd" d=" M 154.08 126.74 C 154.44 127.30 155.15 128.41 155.51 128.97 C 155.73 128.52 156.16 127.62 156.38 127.18 C 157.74 127.40 159.21 127.60 160.09 128.82 C 158.23 129.95 156.00 129.92 153.90 130.11 C 153.95 129.27 154.03 127.58 154.08 126.74 Z" />
<path fill="#e0e0e0" d=" M 163.25 127.44 C 164.80 127.22 166.35 127.16 167.91 127.06 C 167.97 127.88 168.08 129.51 168.14 130.32 C 166.77 129.95 165.28 129.69 164.48 128.39 C 163.87 129.08 163.26 129.77 162.65 130.46 C 162.80 129.71 163.10 128.20 163.25 127.44 Z" />
<path fill="#ababab" d=" M 59.31 142.92 C 59.80 143.16 60.78 143.62 61.28 143.85 C 61.65 143.74 62.40 143.51 62.78 143.40 C 63.18 145.04 63.60 146.68 64.00 148.32 C 62.39 147.62 60.75 146.97 59.27 146.02 L 60.92 144.63 C 59.10 144.68 58.99 146.26 58.79 147.67 C 57.44 146.65 55.86 146.43 54.25 146.67 C 54.27 146.00 54.31 144.66 54.33 143.99 C 55.10 144.22 55.88 144.45 56.66 144.69 C 57.54 144.10 58.42 143.51 59.31 142.92 Z" />
<path fill="#b4b4b4" d=" M 66.24 143.22 C 67.65 142.76 68.13 143.24 67.68 144.64 C 66.27 145.09 65.79 144.62 66.24 143.22 Z" />
<path fill="#ababab" d=" M 77.72 144.48 C 79.55 143.75 81.46 143.28 83.39 142.88 C 82.11 144.43 80.84 145.99 79.65 147.62 C 78.28 147.57 76.91 147.52 75.53 147.49 C 74.10 147.43 72.67 147.39 71.24 147.34 C 70.89 147.73 70.18 148.50 69.82 148.89 C 69.29 148.65 68.22 148.18 67.69 147.95 C 68.09 146.68 68.50 145.41 68.92 144.14 C 70.14 144.27 71.38 144.39 72.61 144.47 C 73.22 144.51 73.84 144.55 74.45 144.60 C 75.54 144.56 76.63 144.52 77.72 144.48 Z" />
<path fill="#ababab" d=" M 83.91 145.73 C 85.14 144.89 86.37 144.06 87.60 143.22 C 88.50 143.74 89.40 144.26 90.30 144.78 C 91.43 144.65 92.56 144.55 93.70 144.44 C 93.94 144.03 94.42 143.22 94.66 142.82 C 94.76 143.31 94.95 144.29 95.05 144.79 C 97.55 144.46 100.08 144.17 102.61 144.48 C 105.29 144.54 107.98 144.44 110.67 144.57 C 111.00 144.13 111.66 143.26 111.99 142.82 C 111.97 144.30 111.94 145.79 111.91 147.28 C 110.87 147.42 109.83 147.57 108.79 147.72 C 108.37 147.44 107.53 146.86 107.10 146.57 C 104.27 147.49 101.30 147.57 98.35 147.67 C 98.48 147.15 98.73 146.10 98.86 145.57 C 98.11 146.20 97.36 146.83 96.62 147.47 C 94.87 147.39 93.13 147.42 91.39 147.55 C 90.44 147.15 89.50 146.76 88.56 146.36 C 87.50 146.96 86.44 147.55 85.37 148.13 C 85.00 147.53 84.28 146.33 83.91 145.73 Z" />
<path fill="#f4814f" d=" M 130.37 143.44 C 135.11 141.66 140.47 147.20 138.29 151.87 C 136.87 156.16 130.83 157.61 127.70 154.31 C 124.20 151.11 125.71 144.61 130.37 143.44 Z" />
<path fill="#fcfcfc" d=" M 86.12 145.24 C 89.44 145.42 84.55 148.22 86.12 145.24 Z" />
<path fill="#fafafa" d=" M 129.51 146.64 C 130.89 147.39 131.78 148.58 131.87 150.26 C 132.81 149.13 133.75 148.00 134.64 146.84 C 134.74 148.14 134.86 149.44 134.99 150.74 C 132.96 150.10 131.02 150.75 129.18 151.61 C 129.62 151.30 130.49 150.68 130.92 150.36 C 130.44 149.12 129.97 147.88 129.51 146.64 Z" />
<path fill="#a0be78" d=" M 54.14 149.79 C 77.64 149.77 101.15 149.63 124.65 149.83 C 125.34 151.76 125.82 154.00 127.56 155.31 C 130.36 157.82 135.22 157.52 137.66 154.62 C 138.81 153.21 139.28 151.40 139.98 149.75 C 141.71 149.74 143.43 149.74 145.15 149.74 C 145.17 153.52 145.16 157.30 145.14 161.08 C 114.82 161.05 84.49 161.14 54.17 161.03 C 54.24 157.28 54.24 153.53 54.14 149.79 Z" />
<path fill="#73a036" d=" M 145.94 149.78 C 161.00 149.78 176.06 149.78 191.13 149.78 L 191.09 151.06 C 176.07 150.92 161.06 150.84 146.05 151.08 L 145.94 149.78 Z" />
<path fill="#497a13" d=" M 191.93 149.76 C 222.30 149.84 252.69 149.65 283.06 149.85 C 283.45 150.22 284.23 150.97 284.62 151.35 C 280.08 151.13 275.52 150.97 270.97 151.02 C 244.92 151.16 218.86 150.89 192.81 151.11 C 192.84 154.04 192.88 156.97 192.95 159.90 C 219.96 160.33 246.97 159.84 273.98 160.15 C 277.68 160.21 281.43 160.03 284.98 158.91 C 284.67 159.45 284.03 160.51 283.72 161.04 C 253.15 161.10 222.58 161.06 192.01 161.06 C 192.04 157.29 191.98 153.52 191.93 149.76 Z" />
<path fill="#86ad52" d=" M 146.05 151.08 C 161.06 150.84 176.07 150.92 191.09 151.06 C 191.15 154.40 191.18 157.74 191.18 161.08 C 176.12 161.07 161.05 161.10 145.99 161.06 C 146.01 157.73 146.03 154.41 146.05 151.08 Z" />
<path fill="#5e892b" d=" M 192.81 151.11 C 218.86 150.89 244.92 151.16 270.97 151.02 C 275.52 150.97 280.08 151.13 284.62 151.35 L 284.93 151.36 C 285.70 152.72 286.53 154.04 287.41 155.33 C 286.63 156.55 285.90 157.80 284.98 158.91 C 281.43 160.03 277.68 160.21 273.98 160.15 C 246.97 159.84 219.96 160.33 192.95 159.90 C 192.88 156.97 192.84 154.04 192.81 151.11 Z" />
<path fill="#ababab" d=" M 54.11 162.72 C 54.43 163.29 55.06 164.43 55.38 165.00 C 56.01 164.47 56.65 163.95 57.29 163.42 C 59.01 163.65 60.72 163.88 62.44 164.15 C 60.68 166.86 56.91 165.26 54.25 165.79 C 54.22 165.02 54.15 163.49 54.11 162.72 Z" />
<path fill="#ababab" d=" M 145.88 162.96 C 150.53 163.86 155.29 163.66 159.99 163.33 C 159.88 163.94 159.67 165.16 159.56 165.77 C 155.12 165.32 150.67 165.52 146.23 165.62 C 146.14 164.95 145.97 163.62 145.88 162.96 Z" />
<path fill="#ababab" d=" M 191.94 163.23 C 194.50 163.49 197.06 163.32 199.62 163.32 C 200.96 165.29 198.15 165.79 197.00 166.80 C 195.93 166.26 194.86 165.73 193.79 165.20 C 193.35 165.30 192.47 165.51 192.03 165.62 C 192.01 165.02 191.96 163.83 191.94 163.23 Z" />
<path fill="#e0e0e0" d=" M 55.16 167.18 C 56.77 167.26 56.58 169.98 55.03 169.99 C 53.42 169.91 53.62 167.19 55.16 167.18 Z" />
<path fill="#dfdfdf" d=" M 62.24 168.07 C 64.29 167.14 66.40 167.36 67.33 169.69 C 65.15 170.05 62.97 170.40 60.82 170.85 C 59.17 170.22 57.59 169.40 56.31 168.16 C 58.28 168.10 60.26 168.09 62.24 168.07 Z" />
<path fill="#e3e3e3" d=" M 146.17 167.42 C 148.06 167.36 149.95 167.30 151.85 167.24 C 151.90 167.97 151.99 169.42 152.04 170.14 C 150.02 170.09 148.00 170.05 145.98 170.01 C 146.03 169.36 146.12 168.07 146.17 167.42 Z" />
<path fill="#dcdcdc" d=" M 155.08 166.91 C 155.39 167.31 156.00 168.12 156.31 168.52 C 157.82 167.94 159.39 167.48 161.03 167.70 C 160.80 168.20 160.33 169.20 160.09 169.71 C 158.36 169.81 156.64 169.92 154.92 170.04 C 154.96 169.26 155.04 167.69 155.08 166.91 Z" />
<path fill="#dedede" d=" M 192.03 167.06 C 192.36 167.40 193.03 168.06 193.36 168.40 C 195.06 168.19 196.76 168.00 198.47 167.86 C 197.24 170.33 194.23 169.76 191.99 170.12 C 192.00 169.35 192.02 167.83 192.03 167.06 Z" />
<path fill="#d9d9d9" d=" M 201.16 167.53 C 202.56 167.70 202.80 168.37 201.88 169.54 C 200.48 169.36 200.24 168.69 201.16 167.53 Z" />
<path fill="#dedede" d=" M 203.05 167.43 C 204.06 167.38 205.07 167.33 206.09 167.29 C 206.10 167.96 206.13 169.32 206.14 169.99 C 205.35 169.98 203.76 169.94 202.97 169.93 C 202.99 169.30 203.03 168.06 203.05 167.43 Z" />
<path fill="#cfcfcf" d=" M 3.66 180.64 C 5.07 180.16 6.51 179.68 8.02 179.68 C 99.34 179.75 190.66 179.70 281.98 179.70 C 285.17 179.91 288.75 178.94 291.61 180.77 C 290.08 180.90 288.55 180.98 287.01 181.00 C 194.35 181.01 101.69 180.99 9.03 181.02 C 7.23 180.98 5.45 180.83 3.66 180.64 Z" />
<path fill="#f4804d" d=" M 9.36 183.32 C 12.46 181.24 17.08 183.36 17.54 187.05 C 18.44 191.32 13.15 194.88 9.52 192.50 C 6.11 190.68 5.98 185.21 9.36 183.32 Z" />
<path fill="#fcd7c7" d=" M 10.99 184.57 C 13.36 184.63 15.20 188.58 12.87 189.73 C 12.28 189.87 11.10 190.15 10.51 190.29 C 10.91 189.87 11.71 189.02 12.11 188.60 C 11.72 187.26 11.34 185.92 10.99 184.57 Z" />
<path fill="#7a7a7a" d=" M 19.81 185.66 C 20.20 185.95 20.96 186.52 21.34 186.81 C 21.86 186.67 22.89 186.39 23.40 186.25 C 22.60 187.83 21.90 189.46 21.33 191.15 C 20.87 189.31 20.34 187.48 19.81 185.66 Z" />
<path fill="#979797" d=" M 34.53 187.66 C 35.66 186.94 36.87 186.38 38.05 185.77 C 38.17 187.39 38.29 189.01 38.39 190.63 L 37.06 190.75 C 37.01 189.87 36.90 188.10 36.85 187.22 C 36.30 188.58 35.74 189.94 35.18 191.30 C 34.57 190.18 33.55 188.90 34.53 187.66 Z" />
<path fill="#5e892b" d=" M 40.21 187.64 C 41.11 186.52 42.23 186.23 43.49 186.86 C 43.61 188.01 43.75 189.16 43.89 190.31 C 42.37 190.36 40.86 190.45 39.34 190.59 C 39.24 189.40 39.13 188.22 39.01 187.05 L 40.21 187.64 Z" />
<path fill="#ababab" d=" M 58.00 186.19 C 58.94 186.36 59.88 186.53 60.82 186.70 C 61.56 187.95 62.29 189.20 63.05 190.44 C 62.88 189.66 62.53 188.09 62.36 187.30 C 63.44 187.44 64.53 187.57 65.62 187.70 C 65.70 188.22 65.87 189.27 65.95 189.79 C 66.63 188.84 67.31 187.89 67.99 186.94 C 67.89 188.16 67.80 189.38 67.70 190.61 C 65.79 190.50 63.87 190.47 61.96 190.65 C 61.61 190.23 60.90 189.39 60.55 188.98 C 60.19 189.60 59.84 190.24 59.48 190.87 C 59.00 189.30 58.51 187.74 58.00 186.19 Z" />
<path fill="#c1c1c1" d=" M 70.00 186.99 C 71.88 186.54 73.85 186.26 75.53 187.47 C 78.54 187.44 81.55 187.41 84.56 187.39 C 84.35 188.47 84.13 189.55 83.92 190.63 C 82.32 190.33 80.72 189.99 79.15 189.57 C 78.85 189.97 78.24 190.78 77.94 191.19 C 76.71 190.57 75.48 189.97 74.25 189.36 C 72.94 189.97 71.63 190.57 70.32 191.18 C 70.22 189.78 70.11 188.39 70.00 186.99 Z" />
<path fill="#c4c4c4" d=" M 97.63 187.84 C 97.98 187.24 98.66 186.03 99.01 185.43 C 99.06 187.24 99.11 189.06 99.15 190.88 C 98.23 190.15 97.32 189.42 96.40 188.69 C 96.52 189.40 96.75 190.81 96.86 191.52 C 95.94 190.83 94.61 190.33 94.32 189.08 C 94.71 188.24 95.15 187.41 95.63 186.61 C 96.13 186.91 97.13 187.53 97.63 187.84 Z" />
<path fill="#bdbdbd" d=" M 114.91 187.76 C 115.96 187.09 117.02 186.42 118.08 185.76 C 118.01 187.62 117.94 189.47 117.83 191.33 C 116.22 190.56 114.64 189.72 113.09 188.84 C 113.31 189.51 113.74 190.85 113.96 191.53 C 111.93 190.76 111.49 188.92 111.89 186.96 C 112.90 187.22 113.90 187.49 114.91 187.76 Z" />
<path fill="#d0d0d0" d=" M 121.61 186.32 C 123.31 186.59 125.01 186.88 126.71 187.19 C 126.87 187.91 127.20 189.36 127.36 190.08 C 125.76 190.56 124.10 190.76 122.44 190.88 C 122.30 190.07 122.01 188.46 121.86 187.65 L 121.76 187.09 L 121.61 186.32 Z" />
<path fill="#bababa" d=" M 126.71 187.19 C 128.05 184.21 130.64 189.85 127.91 190.34 L 127.36 190.08 C 127.20 189.36 126.87 187.91 126.71 187.19 Z" />
<path fill="#ababab" d=" M 134.58 187.63 C 135.34 186.92 136.10 186.21 136.86 185.51 C 136.67 187.08 136.48 188.66 136.29 190.24 C 134.17 190.67 131.99 190.81 130.47 188.96 C 131.68 188.04 132.92 186.66 134.58 187.63 Z" />
<path fill="#ababab" d=" M 146.97 189.87 C 146.53 187.67 149.01 186.94 150.30 185.73 C 150.23 187.42 150.31 189.15 149.80 190.78 C 148.73 190.91 147.78 190.60 146.97 189.87 Z" />
<path fill="#ababab" d=" M 169.21 190.16 C 170.10 188.67 171.05 187.21 172.04 185.78 C 172.25 187.35 172.92 188.65 174.06 189.68 C 174.12 189.03 174.25 187.71 174.32 187.06 C 174.76 187.23 175.65 187.58 176.09 187.75 C 177.04 187.51 177.99 187.27 178.94 187.04 C 178.09 188.11 177.54 189.51 176.34 190.23 C 173.63 190.56 170.89 190.44 168.17 190.64 C 168.22 189.34 168.29 188.04 168.37 186.74 C 168.58 187.60 169.00 189.31 169.21 190.16 Z" />
<path fill="#ababab" d=" M 179.65 188.80 C 181.08 187.64 182.63 186.64 184.32 185.91 C 184.44 186.87 184.57 187.82 184.69 188.78 C 185.26 188.32 186.40 187.39 186.96 186.93 C 186.96 187.46 186.96 188.52 186.96 189.05 C 188.30 188.29 189.66 187.54 191.02 186.80 C 190.84 187.52 190.47 188.95 190.29 189.66 C 190.41 189.93 190.66 190.47 190.78 190.74 C 189.26 190.62 187.73 190.52 186.21 190.45 C 186.23 190.01 186.28 189.12 186.30 188.68 C 185.57 189.24 184.83 189.81 184.10 190.38 C 183.16 190.52 182.22 190.66 181.28 190.81 C 180.87 190.31 180.06 189.31 179.65 188.80 Z" />
<path fill="#9b9b9b" d=" M 23.41 186.95 C 24.91 187.18 26.41 187.42 27.93 187.39 C 28.14 187.94 28.56 189.04 28.76 189.59 C 28.84 189.02 28.98 187.89 29.05 187.32 C 30.30 187.20 31.55 187.06 32.80 186.93 C 32.41 188.14 32.03 189.36 31.66 190.58 C 29.89 190.62 27.97 191.10 26.45 189.89 C 25.19 190.35 23.17 192.41 22.97 189.91 C 23.53 188.91 24.37 188.82 25.47 189.65 C 24.78 188.75 24.09 187.85 23.41 186.95 Z" />
<path fill="#ababab" d=" M 86.58 187.46 C 88.42 187.48 90.25 187.39 92.08 187.20 C 92.41 188.45 92.73 189.71 93.05 190.97 C 92.69 190.52 91.97 189.62 91.61 189.17 C 89.82 189.75 88.04 190.34 86.25 190.91 C 86.36 189.76 86.47 188.61 86.58 187.46 Z" />
<path fill="#ababab" d=" M 99.93 187.32 C 103.59 187.75 107.31 187.80 110.91 186.95 C 110.90 188.17 110.89 189.39 110.90 190.62 C 109.45 190.55 108.00 190.54 106.56 190.55 C 106.25 190.04 105.63 189.02 105.31 188.51 C 105.23 189.10 105.06 190.27 104.98 190.86 C 103.72 190.01 102.45 189.16 101.18 188.33 C 101.30 189.14 101.54 190.76 101.66 191.56 C 100.37 190.48 99.95 188.95 99.93 187.32 Z" />
<path fill="#bcbcbc" d=" M 120.14 190.44 C 119.21 189.34 120.15 186.65 121.76 187.09 L 121.86 187.65 C 121.76 188.62 121.46 190.61 120.14 190.44 Z" />
<path fill="#bdbdbd" d=" M 139.35 187.38 C 141.21 186.16 140.93 189.96 140.35 190.87 C 138.66 191.09 138.25 188.32 139.35 187.38 Z" />
<path fill="#ababab" d=" M 142.66 186.68 C 143.26 187.39 143.87 188.10 144.47 188.81 C 145.10 188.05 145.74 187.29 146.38 186.54 C 146.18 187.81 145.98 189.08 145.77 190.35 C 144.56 190.48 143.34 190.61 142.13 190.75 C 142.31 189.39 142.49 188.04 142.66 186.68 Z" />
<path fill="#ababab" d=" M 151.11 188.12 C 155.26 186.97 159.60 187.95 163.83 187.40 C 163.85 187.85 163.90 188.75 163.92 189.20 C 164.91 188.33 165.90 187.45 166.88 186.57 C 166.27 188.10 166.10 189.68 166.89 191.18 C 166.38 190.92 165.36 190.38 164.84 190.11 C 164.40 190.28 163.51 190.62 163.07 190.79 C 163.08 190.34 163.10 189.46 163.10 189.02 C 161.02 191.09 158.15 190.69 155.73 189.56 C 155.33 189.87 154.53 190.48 154.13 190.78 C 153.14 190.59 152.16 190.41 151.17 190.23 C 151.15 189.70 151.13 188.65 151.11 188.12 Z" />
<path fill="#ababab" d=" M 194.69 190.62 C 196.67 189.23 198.86 185.86 201.28 188.44 C 200.75 188.63 199.69 189.02 199.16 189.22 C 199.35 189.68 199.72 190.61 199.90 191.08 C 199.38 190.87 198.34 190.47 197.82 190.27 C 196.78 190.39 195.74 190.51 194.69 190.62 Z" />
<path fill="#ededed" d=" M 40.57 188.15 C 41.15 188.73 41.15 188.73 40.57 188.15 Z" />
<path fill="#fafafa" d=" M 77.09 188.27 C 80.42 188.39 75.57 191.26 77.09 188.27 Z" />
<path fill="#f7f7f7" d=" M 116.06 188.25 C 119.38 188.43 114.50 191.22 116.06 188.25 Z" />
<path fill="#f8f8f8" d=" M 159.31 188.24 C 159.81 188.77 159.81 188.77 159.31 188.24 Z" />
<path fill="#5e892b" d=" M 183.66 201.46 C 183.90 199.50 185.50 198.39 186.78 197.12 C 186.64 197.77 186.35 199.07 186.21 199.72 C 187.52 199.25 188.86 198.84 190.22 198.49 C 191.23 199.04 191.37 200.36 191.93 201.28 C 189.97 200.79 187.97 200.47 185.95 200.52 L 186.01 198.88 C 185.42 199.52 184.24 200.82 183.66 201.46 Z" />
<path fill="#a8a8a8" d=" M 172.78 197.67 C 175.06 198.16 177.35 198.70 179.62 199.27 C 180.69 198.90 181.76 198.52 182.83 198.15 C 182.53 199.17 182.22 200.19 181.92 201.21 C 179.02 201.36 176.11 201.39 173.24 200.91 C 173.13 200.10 172.89 198.48 172.78 197.67 Z" />
<path fill="#979797" d=" M 192.56 198.93 C 195.63 198.70 198.78 198.44 201.76 199.43 C 202.42 198.73 203.09 198.03 203.76 197.33 L 204.18 199.07 C 205.11 198.50 206.05 197.95 207.00 197.39 C 207.00 198.34 207.00 200.25 207.00 201.20 C 202.50 201.09 197.95 201.59 193.48 200.89 C 193.25 200.40 192.79 199.42 192.56 198.93 Z" />
<path fill="#9e9e9e" d=" M 207.81 201.15 C 207.97 199.94 208.14 198.74 208.32 197.55 C 210.00 198.27 211.80 198.65 213.56 199.13 C 213.45 199.92 213.32 200.71 213.17 201.49 C 211.38 201.36 209.59 201.25 207.81 201.15 Z" />
<path fill="#a0a0a0" d=" M 214.86 197.57 C 217.29 199.12 220.21 198.85 222.96 198.79 C 226.35 198.62 229.90 199.23 233.06 197.63 C 233.05 198.52 233.03 200.31 233.02 201.21 C 231.53 201.29 230.05 201.37 228.57 201.45 C 228.32 201.21 227.82 200.71 227.56 200.47 C 223.46 201.46 219.21 201.24 215.02 201.20 C 214.98 200.29 214.90 198.47 214.86 197.57 Z" />
<path fill="#ababab" d=" M 233.71 197.97 C 235.67 198.25 237.64 198.51 239.62 198.69 C 239.63 199.58 239.64 200.47 239.65 201.37 C 238.05 201.40 236.45 201.45 234.85 201.52 C 234.47 200.34 234.08 199.15 233.71 197.97 Z" />
<path fill="#cdcdcd" d=" M 19.96 199.98 C 21.07 199.72 22.18 199.48 23.29 199.24 C 22.92 201.18 22.20 203.00 20.10 203.59 C 20.07 202.69 20.00 200.88 19.96 199.98 Z" />
<path fill="#c1c1c1" d=" M 32.26 199.75 C 33.98 200.20 35.77 200.45 37.42 201.15 C 37.28 202.04 37.10 202.93 36.90 203.82 C 36.15 203.32 35.40 202.81 34.65 202.30 C 34.30 202.45 33.59 202.75 33.24 202.90 C 33.05 202.30 32.68 201.10 32.50 200.51 C 32.52 203.60 29.68 203.39 27.47 203.38 C 27.25 203.14 26.80 202.65 26.58 202.41 C 25.89 202.96 25.20 203.51 24.51 204.06 C 24.39 203.26 24.14 201.65 24.02 200.85 C 26.28 200.54 28.57 200.61 30.70 201.52 C 31.22 200.93 31.74 200.34 32.26 199.75 Z" />
<path fill="#c1c1c1" d=" M 51.82 200.74 C 51.95 200.41 52.22 199.74 52.35 199.40 C 53.74 201.19 56.02 200.57 57.95 200.54 C 57.97 201.00 58.02 201.91 58.04 202.37 C 57.17 202.64 56.30 202.91 55.43 203.20 C 51.20 203.42 47.00 202.22 42.79 203.04 C 42.96 202.01 43.13 200.97 43.30 199.95 C 43.56 200.40 44.07 201.31 44.32 201.76 C 46.29 199.65 49.31 200.78 51.82 200.74 Z" />
<path fill="#c1c1c1" d=" M 85.89 199.35 C 85.87 200.61 85.87 201.86 85.87 203.13 C 80.94 202.52 75.97 202.53 71.01 202.79 C 71.05 202.20 71.11 201.03 71.14 200.44 C 75.17 200.60 79.21 200.64 83.25 200.62 C 84.30 200.68 85.05 199.83 85.89 199.35 Z" />
<path fill="#c1c1c1" d=" M 90.03 200.95 C 90.08 200.59 90.19 199.85 90.24 199.48 C 92.35 201.16 95.15 200.57 97.64 200.73 C 98.36 200.21 99.07 199.69 99.79 199.18 C 99.85 200.51 99.92 201.85 99.98 203.18 C 95.91 203.34 91.84 202.98 87.78 203.39 C 87.67 202.11 87.56 200.83 87.46 199.56 C 88.10 199.91 89.39 200.61 90.03 200.95 Z" />
<path fill="#548e11" d=" M 155.28 199.18 C 157.40 197.38 161.16 199.13 160.91 201.99 C 161.34 204.45 159.07 207.31 156.45 206.49 C 153.21 205.83 152.90 200.98 155.28 199.18 Z" />
<path fill="#548e11" d=" M 164.51 200.58 C 165.19 198.99 166.89 198.67 168.41 198.42 C 164.31 204.91 160.01 211.28 155.78 217.70 C 155.15 217.71 153.88 217.74 153.24 217.75 C 157.00 212.03 160.79 206.32 164.51 200.58 Z" />
<path fill="#dcdcdc" d=" M 59.49 203.04 C 59.92 199.85 63.76 200.37 66.13 199.89 C 68.32 199.05 69.02 201.53 70.12 202.84 C 66.61 203.47 63.03 203.33 59.49 203.04 Z" />
<path fill="#548e11" d=" M 124.92 202.98 C 127.23 201.23 129.97 200.15 132.81 199.66 C 132.89 204.40 132.82 209.15 132.88 213.90 C 132.02 214.51 131.15 215.09 130.31 215.71 C 132.54 215.69 134.67 214.91 136.88 214.63 C 136.85 215.39 136.78 216.90 136.75 217.66 C 132.82 217.58 128.89 217.61 124.96 217.63 C 125.03 216.96 125.19 215.63 125.27 214.96 C 126.72 214.77 128.19 214.81 129.65 214.75 C 129.64 210.93 129.65 207.11 129.68 203.29 C 128.29 204.09 126.90 204.90 125.50 205.69 C 125.36 205.02 125.07 203.66 124.92 202.98 Z" />
<path fill="#5a9116" d=" M 140.38 200.12 C 143.73 200.15 147.08 200.16 150.43 200.06 C 150.46 200.83 150.51 202.37 150.53 203.13 C 148.14 203.13 145.75 203.12 143.36 203.12 C 143.35 204.31 143.34 205.49 143.33 206.68 C 145.27 206.98 147.38 206.83 149.17 207.74 C 152.25 209.47 152.12 214.47 149.22 216.32 C 146.65 218.27 143.25 217.76 140.23 217.81 C 140.15 217.13 139.98 215.77 139.90 215.10 C 142.52 214.90 146.75 216.15 147.91 212.94 C 148.66 208.71 143.06 209.43 140.38 209.33 C 140.43 206.26 140.43 203.19 140.38 200.12 Z" />
<path fill="#ffffff" d=" M 155.77 200.61 C 158.78 199.42 159.45 203.02 157.95 204.96 C 155.69 204.78 156.22 202.15 155.77 200.61 Z" />
<path fill="#b1b1b1" d=" M 40.18 201.08 C 41.46 201.74 41.43 202.43 40.12 203.15 C 38.85 202.48 38.87 201.79 40.18 201.08 Z" />
<path fill="#a2a2a2" d=" M 176.90 204.00 C 178.26 204.00 179.61 204.00 180.97 203.99 C 181.38 204.94 181.79 205.90 182.20 206.85 C 181.61 207.17 180.44 207.79 179.86 208.11 C 179.80 206.96 179.75 205.81 179.71 204.66 C 179.14 206.05 178.49 207.43 177.32 208.42 C 177.16 206.94 177.02 205.47 176.90 204.00 Z" />
<path fill="#9b9b9b" d=" M 181.49 203.95 C 182.29 204.02 183.90 204.16 184.70 204.23 C 185.21 205.33 185.72 206.44 186.23 207.55 C 183.82 207.61 182.46 205.90 181.49 203.95 Z" />
<path fill="#c6c6c6" d=" M 187.39 204.26 C 189.02 202.98 190.05 205.96 188.68 206.82 C 187.06 208.07 185.99 205.11 187.39 204.26 Z" />
<path fill="#ababab" d=" M 190.33 205.48 C 191.73 205.34 193.13 205.19 194.54 205.07 C 196.53 205.30 198.52 205.43 200.52 205.55 C 198.82 207.00 196.69 207.52 194.50 207.53 C 194.08 207.21 193.23 206.57 192.81 206.26 C 192.43 206.74 191.67 207.70 191.29 208.18 C 191.05 207.51 190.57 206.16 190.33 205.48 Z" />
<path fill="#c1c1c1" d=" M 201.50 204.16 C 205.73 204.84 210.08 205.20 214.29 204.10 C 213.80 205.13 214.52 207.36 212.86 207.36 C 209.32 207.47 205.76 207.41 202.22 207.36 C 201.29 206.59 201.73 205.20 201.50 204.16 Z" />
<path fill="#bdbdbd" d=" M 248.26 204.39 C 249.68 204.28 249.70 206.75 248.84 207.46 C 247.42 207.56 247.41 205.10 248.26 204.39 Z" />
<path fill="#c1c1c1" d=" M 251.03 203.96 C 254.98 204.61 258.99 204.63 262.97 205.05 C 264.41 205.15 264.70 206.89 265.47 207.82 C 261.79 206.36 257.78 206.23 254.01 207.46 C 253.54 207.05 253.07 206.64 252.61 206.23 C 251.84 206.86 251.08 207.49 250.32 208.13 C 250.55 206.74 250.78 205.35 251.03 203.96 Z" />
<path fill="#c7c7c7" d=" M 264.84 203.83 C 267.13 204.29 269.44 204.64 271.77 204.91 C 271.77 205.95 271.78 207.00 271.79 208.04 C 271.42 208.20 270.67 208.52 270.29 208.68 C 269.49 207.90 268.69 207.12 267.89 206.34 C 267.44 206.48 266.53 206.75 266.08 206.89 C 265.66 205.87 265.25 204.85 264.84 203.83 Z" />
<path fill="#ababab" d=" M 215.36 205.32 C 221.59 205.11 227.84 206.11 234.03 205.03 C 233.63 205.90 233.24 206.78 232.85 207.66 C 232.44 207.34 231.60 206.70 231.18 206.38 C 228.75 207.21 226.17 207.41 223.62 207.38 C 223.16 206.96 222.24 206.13 221.78 205.71 C 221.70 206.24 221.54 207.31 221.46 207.84 C 220.85 207.25 220.24 206.66 219.63 206.08 C 218.22 206.73 216.81 207.38 215.40 208.03 C 215.39 207.35 215.37 206.00 215.36 205.32 Z" />
<path fill="#ababab" d=" M 234.63 205.51 C 238.59 205.25 242.56 205.21 246.52 205.31 C 245.30 206.75 243.43 206.51 241.75 206.54 C 241.42 206.74 240.76 207.13 240.43 207.33 C 238.43 206.96 236.15 207.09 234.63 205.51 Z" />
<path fill="#e4e4e4" d=" M 41.92 205.94 C 42.71 206.03 44.31 206.21 45.10 206.30 C 44.93 207.39 44.87 208.49 44.91 209.60 C 44.46 210.98 43.69 211.26 42.61 210.44 C 41.53 209.24 42.19 207.40 41.92 205.94 Z" />
<path fill="#bbbbbb" d=" M 45.10 206.30 C 46.95 206.06 46.80 210.19 44.91 209.60 C 44.87 208.49 44.93 207.39 45.10 206.30 Z" />
<path fill="#cdcdcd" d=" M 47.29 205.95 C 48.01 206.10 48.73 206.26 49.46 206.41 C 50.09 206.33 51.35 206.18 51.98 206.10 C 52.04 207.20 51.97 208.29 51.78 209.37 C 50.40 210.06 48.77 209.70 47.28 209.89 C 47.29 208.58 47.29 207.26 47.29 205.95 Z" />
<path fill="#cdcdcd" d=" M 62.83 205.78 C 64.48 206.18 66.12 206.67 67.69 207.33 C 68.80 206.88 69.92 206.42 71.03 205.97 C 71.08 207.42 71.13 208.87 71.19 210.33 C 68.93 211.09 66.92 210.44 65.46 208.58 C 65.09 209.05 64.72 209.52 64.35 210.00 C 63.84 208.59 63.33 207.19 62.83 205.78 Z" />
<path fill="#cccccc" d=" M 72.79 206.17 C 75.04 207.35 77.52 207.59 79.95 206.82 C 79.95 207.56 79.96 209.04 79.96 209.78 C 77.60 209.62 75.23 209.65 72.88 209.89 C 72.85 208.65 72.82 207.40 72.79 206.17 Z" />
<path fill="#d3d3d3" d=" M 81.01 206.03 C 83.91 206.68 86.86 207.07 89.81 207.32 C 90.14 207.02 90.79 206.40 91.12 206.10 C 92.28 206.55 93.44 207.00 94.61 207.45 C 94.29 208.49 93.97 209.52 93.65 210.57 C 89.58 209.31 85.32 209.66 81.14 209.72 C 81.09 208.49 81.05 207.26 81.01 206.03 Z" />
<path fill="#ababab" d=" M 95.97 206.05 C 96.69 206.57 97.42 207.08 98.14 207.60 C 99.37 207.59 100.60 207.59 101.82 207.60 C 101.94 207.32 102.18 206.77 102.30 206.50 C 104.51 208.38 107.67 207.23 110.31 207.56 C 110.19 208.32 109.96 209.84 109.84 210.60 C 109.30 209.74 108.76 208.89 108.22 208.04 C 104.69 210.45 100.34 209.20 96.37 209.37 C 96.24 208.26 96.10 207.16 95.97 206.05 Z" />
<path fill="#ababab" d=" M 21.19 207.28 C 24.05 207.37 26.92 207.40 29.78 207.41 C 29.84 208.10 29.94 209.50 30.00 210.19 C 29.67 209.69 29.01 208.67 28.68 208.17 C 27.46 209.37 26.19 210.18 25.35 208.02 C 25.20 208.34 24.89 208.99 24.73 209.31 C 24.33 209.32 23.51 209.32 23.11 209.33 C 22.66 209.71 21.77 210.48 21.33 210.86 C 21.28 209.67 21.23 208.47 21.19 207.28 Z" />
<path fill="#dbdbdb" d=" M 52.97 206.96 C 56.41 207.39 62.54 205.19 63.45 210.03 C 60.04 209.62 56.60 209.58 53.18 209.71 C 53.13 209.03 53.03 207.65 52.97 206.96 Z" />
<path fill="#c4c4c4" d=" M 40.23 209.29 C 40.73 209.81 40.73 209.81 40.23 209.29 Z" />
<path fill="#548e11" d=" M 162.37 210.32 C 164.39 208.81 167.77 210.29 167.83 212.89 C 168.37 215.26 166.56 218.24 163.90 217.84 C 160.20 217.70 159.68 212.15 162.37 210.32 Z" />
<path fill="#a0a0a0" d=" M 177.00 209.57 C 178.26 210.36 179.51 211.17 180.75 211.99 L 181.05 211.25 L 179.16 210.46 C 180.97 210.01 182.84 210.08 184.69 210.13 C 185.21 211.33 185.73 212.53 186.25 213.72 C 184.89 213.26 183.55 212.79 182.21 212.30 C 181.90 212.64 181.27 213.30 180.96 213.64 C 179.64 213.68 178.32 213.73 177.01 213.80 C 177.01 212.39 177.00 210.98 177.00 209.57 Z" />
<path fill="#cfcfcf" d=" M 187.34 213.71 C 185.85 211.84 187.54 210.18 189.16 209.26 C 188.51 210.57 189.85 214.37 187.34 213.71 Z" />
<path fill="#c1c1c1" d=" M 200.90 210.18 C 204.57 210.85 208.31 210.76 212.00 210.29 C 211.96 211.62 211.91 212.96 211.86 214.30 C 211.39 213.23 210.93 212.16 210.47 211.09 C 207.50 213.62 203.59 213.68 199.90 213.64 C 200.23 212.48 200.56 211.33 200.90 210.18 Z" />
<path fill="#ababab" d=" M 223.59 210.71 C 223.89 210.90 224.49 211.27 224.80 211.45 C 225.54 211.38 227.03 211.23 227.77 211.15 C 227.43 211.97 227.09 212.78 226.75 213.60 C 222.64 212.65 218.19 211.60 214.18 213.54 C 214.10 212.90 213.94 211.63 213.86 211.00 C 214.26 211.15 215.05 211.47 215.45 211.62 C 218.18 211.48 220.91 211.30 223.59 210.71 Z" />
<path fill="#cbcbcb" d=" M 228.71 214.04 C 228.97 209.66 234.17 211.13 237.13 210.16 C 237.03 211.45 236.93 212.74 236.83 214.04 C 235.46 213.58 234.09 213.12 232.73 212.66 C 231.40 213.13 230.05 213.59 228.71 214.04 Z" />
<path fill="#cbcbcb" d=" M 238.02 212.94 C 238.75 210.78 241.13 210.42 242.97 209.61 C 243.00 210.54 243.04 212.39 243.06 213.31 C 241.40 213.28 239.47 214.11 238.02 212.94 Z" />
<path fill="#ababab" d=" M 244.44 210.40 C 247.19 211.24 250.05 211.72 252.87 210.89 C 254.42 210.24 255.68 211.38 256.94 212.11 C 256.69 212.52 256.21 213.35 255.96 213.77 C 255.54 213.45 254.70 212.83 254.27 212.52 C 252.59 212.93 250.90 213.31 249.20 213.65 C 249.07 213.18 248.82 212.25 248.70 211.79 C 248.12 212.41 247.55 213.03 246.98 213.65 C 246.19 213.25 245.40 212.86 244.61 212.47 C 244.57 211.95 244.49 210.92 244.44 210.40 Z" />
<path fill="#ababab" d=" M 269.97 211.51 C 272.32 211.39 274.67 211.16 276.99 210.71 C 279.20 211.02 281.41 211.37 283.61 211.73 C 284.65 211.21 285.70 210.70 286.75 210.18 C 286.70 210.87 286.62 212.26 286.57 212.95 C 283.77 213.74 281.10 212.21 278.31 212.36 C 276.65 212.37 275.19 213.23 273.71 213.84 C 273.25 213.51 272.33 212.86 271.87 212.53 C 271.68 212.94 271.31 213.77 271.12 214.18 C 270.73 213.29 270.35 212.40 269.97 211.51 Z" />
<path fill="#ffffff" d=" M 163.63 211.08 C 165.59 212.02 166.25 214.26 164.97 216.10 C 162.08 216.14 163.11 212.82 163.63 211.08 Z" />
<path fill="#ababab" d=" M 190.32 211.37 C 193.10 211.42 195.88 211.47 198.67 211.51 C 198.33 212.18 197.99 212.85 197.65 213.52 C 195.45 213.26 193.22 213.22 191.05 213.75 C 190.87 213.16 190.51 211.97 190.32 211.37 Z" />
<path fill="#ababab" d=" M 257.62 211.50 C 261.37 211.31 265.13 211.32 268.89 211.19 C 268.39 212.08 267.90 212.98 267.41 213.87 C 266.98 213.40 266.11 212.45 265.68 211.98 C 264.94 212.46 264.21 212.94 263.48 213.43 C 261.37 213.34 258.81 213.69 257.62 211.50 Z" />
<path fill="#cacaca" d=" M 23.52 213.39 C 23.96 212.96 24.85 212.10 25.29 211.66 C 25.18 212.97 25.06 214.28 24.95 215.59 C 23.65 215.70 22.36 215.81 21.06 215.93 C 21.07 215.23 21.08 213.82 21.08 213.12 C 21.89 213.21 22.70 213.30 23.52 213.39 Z" />
<path fill="#ababab" d=" M 27.09 212.08 C 27.73 212.62 28.38 213.17 29.03 213.71 C 32.05 213.66 35.07 213.51 38.05 213.00 C 37.99 213.84 37.86 215.52 37.80 216.36 C 37.48 215.71 36.85 214.41 36.53 213.76 C 36.27 214.19 35.73 215.06 35.47 215.50 C 32.73 215.46 30.00 215.41 27.27 215.40 C 27.21 214.29 27.15 213.18 27.09 212.08 Z" />
<path fill="#cecece" d=" M 46.19 213.36 C 47.92 213.08 49.63 212.49 51.40 212.60 C 52.03 213.59 52.44 214.71 52.91 215.79 C 48.56 215.90 44.21 215.90 39.87 216.00 C 39.91 215.23 39.99 213.70 40.04 212.94 C 42.24 212.98 45.57 211.72 45.49 215.14 C 45.66 214.70 46.02 213.81 46.19 213.36 Z" />
<path fill="#d7d7d7" d=" M 53.91 212.01 C 55.98 213.82 58.45 213.05 60.74 212.20 C 61.55 212.57 62.36 212.94 63.17 213.32 C 64.91 213.15 66.65 212.99 68.39 212.84 C 68.18 213.60 67.77 215.13 67.56 215.89 C 66.62 216.02 66.05 215.28 65.42 214.74 C 61.97 216.85 57.73 215.33 53.92 215.95 C 53.92 214.63 53.92 213.32 53.91 212.01 Z" />
<path fill="#cbcbcb" d=" M 86.96 213.38 C 88.35 212.91 89.74 212.43 91.14 211.95 C 91.05 213.11 90.96 214.28 90.87 215.45 C 89.56 215.66 88.25 215.87 86.94 216.08 C 86.95 215.41 86.95 214.06 86.96 213.38 Z" />
<path fill="#cccccc" d=" M 91.94 214.78 C 92.21 213.50 93.12 212.53 93.86 211.51 C 93.93 212.08 94.06 213.23 94.12 213.81 C 95.03 213.15 95.93 212.47 96.88 211.88 C 98.26 212.89 98.67 215.15 96.81 215.91 C 95.13 216.12 93.07 216.33 91.94 214.78 Z" />
<path fill="#c1c1c1" d=" M 99.11 212.28 C 102.28 213.44 105.66 213.58 108.99 213.26 C 108.71 214.07 108.42 214.87 108.14 215.68 C 105.13 215.17 102.13 215.78 99.24 216.65 C 99.20 215.19 99.15 213.73 99.11 212.28 Z" />
<path fill="#cbcbcb" d=" M 78.28 213.28 C 80.72 213.19 83.15 213.08 85.58 213.03 C 85.28 215.07 83.79 216.23 82.03 217.02 C 80.67 216.61 79.31 216.20 77.95 215.82 C 78.03 215.18 78.20 213.91 78.28 213.28 Z" />
<path fill="#a2a2a2" d=" M 176.97 216.10 C 178.36 216.09 179.75 216.07 181.15 216.04 C 181.91 217.77 182.08 219.45 180.19 220.47 C 179.96 219.62 179.49 217.91 179.25 217.06 C 179.23 217.79 179.18 219.24 179.15 219.97 C 178.61 219.98 177.53 220.00 176.99 220.01 C 176.98 218.71 176.97 217.40 176.97 216.10 Z" />
<path fill="#a9a9a9" d=" M 181.34 216.04 C 182.21 216.09 183.96 216.19 184.84 216.24 C 185.22 217.58 185.61 218.92 185.97 220.28 C 183.83 219.58 182.27 218.07 181.34 216.04 Z" />
<path fill="#cbcbcb" d=" M 188.17 216.08 C 189.91 216.40 189.51 219.53 187.91 219.81 C 186.13 219.46 186.52 216.36 188.17 216.08 Z" />
<path fill="#c1c1c1" d=" M 199.95 217.17 C 202.61 217.38 205.28 217.09 207.82 216.26 C 207.88 217.35 207.95 218.45 208.01 219.55 C 205.43 219.50 202.85 219.61 200.29 219.90 C 200.20 219.22 200.04 217.85 199.95 217.17 Z" />
<path fill="#ababab" d=" M 211.53 217.57 C 216.94 217.05 222.33 216.73 227.75 217.33 C 227.40 218.59 227.06 219.87 226.70 221.13 C 225.84 220.21 224.98 219.29 224.13 218.37 C 221.87 219.14 219.50 219.48 217.12 219.50 C 214.94 217.92 212.51 218.53 210.35 219.77 C 210.23 219.10 209.98 217.74 209.86 217.07 C 210.28 217.19 211.11 217.45 211.53 217.57 Z" />
<path fill="#ababab" d=" M 190.35 217.41 C 193.07 217.45 195.80 217.53 198.52 217.66 C 198.32 218.31 198.11 218.97 197.91 219.63 C 195.62 219.33 193.28 219.22 191.03 219.85 C 190.86 219.24 190.52 218.02 190.35 217.41 Z" />
<path fill="#fafafa" d=" M 92.80 218.27 C 93.27 218.47 94.20 218.86 94.67 219.06 C 94.20 220.38 93.75 221.70 93.25 223.00 L 88.94 223.00 C 88.81 221.99 88.68 220.98 88.55 219.98 C 90.39 221.23 91.78 219.78 92.80 218.27 Z" />
<path fill="#cdcdcd" d=" M 20.62 219.69 C 22.43 219.71 24.24 219.74 26.05 219.79 C 24.94 220.87 23.84 221.97 22.67 223.00 L 21.84 223.00 C 21.43 221.89 21.03 220.79 20.62 219.69 Z" />
<path fill="#cccccc" d=" M 26.94 219.00 C 29.40 219.64 31.95 219.75 34.42 219.08 C 34.41 219.77 34.38 221.15 34.37 221.84 C 31.91 221.86 29.46 221.93 27.00 222.00 C 26.99 221.25 26.95 219.75 26.94 219.00 Z" />
<path fill="#c2c2c2" d=" M 35.16 219.41 C 36.35 218.67 37.64 220.70 36.69 221.60 C 35.50 222.34 34.21 220.31 35.16 219.41 Z" />
<path fill="#cccccc" d=" M 38.93 219.59 C 43.39 220.22 47.89 219.53 52.35 219.20 C 52.33 219.89 52.28 221.26 52.26 221.95 C 47.92 221.27 43.54 221.78 39.35 223.00 L 37.72 223.00 C 38.14 221.87 38.53 220.73 38.93 219.59 Z" />
<path fill="#c8c8c8" d=" M 52.82 220.59 C 53.86 220.10 54.94 219.71 56.07 219.48 C 56.16 220.66 56.09 221.83 55.87 223.00 L 55.34 223.00 C 54.40 222.30 53.56 221.48 52.82 220.59 Z" />
<path fill="#cbcbcb" d=" M 64.35 220.48 C 65.23 220.08 66.12 219.68 67.00 219.29 C 67.00 219.94 66.99 221.25 66.99 221.91 C 65.33 221.94 63.68 221.98 62.03 222.01 C 62.02 221.47 62.01 220.39 62.00 219.85 C 62.58 220.01 63.76 220.32 64.35 220.48 Z" />
<path fill="#c8c8c8" d=" M 68.46 221.49 C 69.27 217.13 73.52 222.30 74.86 218.82 C 75.48 220.18 76.02 221.56 76.49 222.99 C 73.76 222.75 71.22 221.55 68.46 221.49 Z" />
<path fill="#ababab" d=" M 78.15 220.47 C 81.09 220.40 84.03 220.12 86.93 219.61 C 86.85 220.07 86.70 221.00 86.62 221.46 C 83.79 221.56 80.97 221.62 78.14 221.65 C 78.14 221.35 78.15 220.76 78.15 220.47 Z" />
<path fill="#c8c8c8" d=" M 101.14 219.68 C 102.34 218.43 104.94 220.23 103.67 221.70 C 102.46 223.12 99.82 221.16 101.14 219.68 Z" />
<path fill="#c5c5c5" d=" M 58.02 223.00 C 57.36 221.39 59.00 218.80 60.77 220.13 C 61.80 221.55 59.67 222.54 58.64 223.00 L 58.02 223.00 Z" />
<path fill="#bebebe" d=" M 95.23 219.90 C 97.03 219.91 98.83 219.92 100.64 219.96 C 99.22 221.05 97.78 222.12 96.22 223.00 L 95.88 223.00 C 95.66 221.96 95.45 220.93 95.23 219.90 Z" />
<path fill="#b8b8b8" d=" M 105.13 220.31 C 108.47 220.48 103.59 223.28 105.13 220.31 Z" />
<path fill="#c6c6c6" d=" M 108.39 220.21 C 109.28 219.40 111.24 220.14 110.94 221.46 C 110.24 222.94 106.96 221.71 108.39 220.21 Z" />
</svg>
