<?xml version="1.0" encoding="iso-8859-1"?>
<!-- Generator: Adobe Illustrator 17.1.0, SVG Export Plug-In . SVG Version: 6.00 Build 0)  -->
<!DOCTYPE svg PUBLIC "-//W3C//DTD SVG 1.1//EN" "http://www.w3.org/Graphics/SVG/1.1/DTD/svg11.dtd">
<svg version="1.1" id="Capa_1" xmlns="http://www.w3.org/2000/svg" xmlns:xlink="http://www.w3.org/1999/xlink" x="0px" y="0px"
	 viewBox="0 0 221.684 221.684" style="enable-background:new 0 0 221.684 221.684;" xml:space="preserve">
<path d="M216.684,49.382h-44.235V7.527c0-2.762-2.239-5-5-5s-5,2.238-5,5v41.855h-61.494c-28.544,0-51.767,23.223-51.767,51.767
	V162.3H5c-2.761,0-5,2.238-5,5s2.239,5,5,5h44.188v41.856c0,2.762,2.239,5,5,5s5-2.238,5-5V172.3h61.494
	c28.544,0,51.767-23.223,51.767-51.767V59.382h44.235c2.761,0,5-2.238,5-5S219.445,49.382,216.684,49.382z M81.99,164.432
	c-0.977,0.977-2.256,1.465-3.536,1.465s-2.559-0.488-3.536-1.465l-17.52-17.52c-1.953-1.952-1.953-5.118,0-7.07
	c1.953-1.953,5.118-1.953,7.071,0l17.52,17.52C83.942,159.314,83.942,162.48,81.99,164.432z M109.061,160.171
	c-0.977,0.977-2.256,1.465-3.536,1.465s-2.559-0.488-3.536-1.465l-40.33-40.33c-1.953-1.952-1.953-5.118,0-7.07
	c1.953-1.953,5.118-1.953,7.071,0l40.33,40.33C111.013,155.053,111.013,158.219,109.061,160.171z M137.755,157.536
	c-0.977,0.977-2.256,1.465-3.536,1.465c-1.28,0-2.559-0.488-3.536-1.465L64.295,91.147c-1.953-1.952-1.953-5.118,0-7.07
	s5.119-1.952,7.071,0l66.388,66.389C139.708,152.417,139.708,155.583,137.755,157.536z M154.087,142.537
	c-0.977,0.977-2.256,1.465-3.536,1.465s-2.559-0.488-3.536-1.465L79.294,74.815c-1.953-1.952-1.953-5.118,0-7.07
	c1.953-1.953,5.118-1.953,7.071,0l67.722,67.722C156.04,137.418,156.04,140.584,154.087,142.537z M161.553,118.672
	c-0.977,0.977-2.256,1.465-3.536,1.465s-2.559-0.488-3.536-1.465l-51.323-51.323c-1.953-1.952-1.953-5.118,0-7.07
	c1.953-1.953,5.118-1.953,7.071,0l51.323,51.323C163.506,113.554,163.506,116.72,161.553,118.672z M164.265,90.053
	c-0.977,0.977-2.256,1.465-3.536,1.465c-1.28,0-2.559-0.488-3.536-1.465l-25.416-25.416c-1.953-1.952-1.953-5.118,0-7.07
	c1.954-1.953,5.119-1.952,7.071,0l25.416,25.416C166.217,84.935,166.217,88.101,164.265,90.053z"/>
<g>
</g>
<g>
</g>
<g>
</g>
<g>
</g>
<g>
</g>
<g>
</g>
<g>
</g>
<g>
</g>
<g>
</g>
<g>
</g>
<g>
</g>
<g>
</g>
<g>
</g>
<g>
</g>
<g>
</g>
</svg>
