<?xml version="1.0" encoding="UTF-8" standalone="no"?>
<svg
   xmlns:dc="http://purl.org/dc/elements/1.1/"
   xmlns:cc="http://creativecommons.org/ns#"
   xmlns:rdf="http://www.w3.org/1999/02/22-rdf-syntax-ns#"
   xmlns:svg="http://www.w3.org/2000/svg"
   xmlns="http://www.w3.org/2000/svg"
   xmlns:sodipodi="http://sodipodi.sourceforge.net/DTD/sodipodi-0.dtd"
   xmlns:inkscape="http://www.inkscape.org/namespaces/inkscape"
   viewBox="0 -256 1792 1792"
   id="svg3166"
   version="1.1"
   inkscape:version="0.48.3.1 r9886"
   width="100%"
   height="100%"
   sodipodi:docname="user_md_font_awesome.svg">
  <metadata
     id="metadata3176">
    <rdf:RDF>
      <cc:Work
         rdf:about="">
        <dc:format>image/svg+xml</dc:format>
        <dc:type
           rdf:resource="http://purl.org/dc/dcmitype/StillImage" />
      </cc:Work>
    </rdf:RDF>
  </metadata>
  <defs
     id="defs3174" />
  <sodipodi:namedview
     pagecolor="#ffffff"
     bordercolor="#666666"
     borderopacity="1"
     objecttolerance="10"
     gridtolerance="10"
     guidetolerance="10"
     inkscape:pageopacity="0"
     inkscape:pageshadow="2"
     inkscape:window-width="640"
     inkscape:window-height="480"
     id="namedview3172"
     showgrid="false"
     inkscape:zoom="0.13169643"
     inkscape:cx="896"
     inkscape:cy="896"
     inkscape:window-x="0"
     inkscape:window-y="25"
     inkscape:window-maximized="0"
     inkscape:current-layer="svg3166" />
  <g
     transform="matrix(1,0,0,-1,205.01695,1300.6102)"
     id="g3168">
    <path
       d="m 384,192 q 0,-26 -19,-45 -19,-19 -45,-19 -26,0 -45,19 -19,19 -19,45 0,26 19,45 19,19 45,19 26,0 45,-19 19,-19 19,-45 z m 1024,-61 q 0,-121 -73,-190 -73,-69 -194,-69 H 267 Q 146,-128 73,-59 0,10 0,131 0,199 5.5,262 11,325 29.5,400 48,475 77,532.5 106,590 158,635.5 210,681 278,696 256,644 256,576 V 373 Q 198,353 163,303 128,253 128,192 128,112 184,56 240,0 320,0 q 80,0 136,56 56,56 56,136 0,61 -35.5,111 -35.5,50 -92.5,70 v 203 q 0,62 25,93 132,-104 295,-104 163,0 295,104 25,-31 25,-93 V 512 Q 918,512 843,437 768,362 768,256 v -89 q -32,-29 -32,-71 0,-40 28,-68 28,-28 68,-28 40,0 68,28 28,28 28,68 0,42 -32,71 v 89 q 0,52 38,90 38,38 90,38 52,0 90,-38 38,-38 38,-90 v -89 q -32,-29 -32,-71 0,-40 28,-68 28,-28 68,-28 40,0 68,28 28,28 28,68 0,42 -32,71 v 89 q 0,68 -34.5,127.5 -34.5,59.5 -93.5,93.5 0,10 0.5,42.5 0.5,32.5 0,48 -0.5,15.5 -2.5,41.5 -2,26 -7,47 -5,21 -13,40 68,-15 120,-60.5 52,-45.5 81,-103 29,-57.5 47.5,-132.5 18.5,-75 24,-138 5.5,-63 5.5,-131 z m -320,893 Q 1088,865 975.5,752.5 863,640 704,640 545,640 432.5,752.5 320,865 320,1024 320,1183 432.5,1295.5 545,1408 704,1408 863,1408 975.5,1295.5 1088,1183 1088,1024 z"
       id="path3170"
       inkscape:connector-curvature="0"
       style="fill:currentColor" />
  </g>
</svg>
