<?xml version="1.0" encoding="utf-8"?>
<!-- Generator: Adobe Illustrator 14.0.0, SVG Export Plug-In . SVG Version: 6.00 Build 43363)  -->
<!DOCTYPE svg PUBLIC "-//W3C//DTD SVG 1.0//EN" "http://www.w3.org/TR/2001/REC-SVG-20010904/DTD/svg10.dtd">
<svg version="1.0" id="Layer_1" xmlns="http://www.w3.org/2000/svg" xmlns:xlink="http://www.w3.org/1999/xlink" x="0px" y="0px"
	 width="76.305px" height="100px" viewBox="0 0 76.305 100" enable-background="new 0 0 76.305 100" xml:space="preserve">
<path d="M24.607,83.056v9.629h8.558v7.313L43.14,100v-7.315h7.889v-9.629l-7.89,0.001l-0.002-7.09
	c18.689-2.451,33.166-18.469,33.168-37.815C76.305,17.114,59.189,0,38.152,0C17.114,0,0,17.114,0,38.152
	c-0.001,19.346,14.478,35.365,33.165,37.817v7.087H24.607z M9.974,38.152C9.972,22.613,22.614,9.974,38.152,9.973
	c15.537,0,28.178,12.641,28.18,28.179C66.33,53.69,53.69,66.331,38.152,66.331C22.614,66.331,9.972,53.69,9.974,38.152z"/>
</svg>
