<?xml version="1.0" encoding="iso-8859-1"?>
<!-- Generator: Adobe Illustrator 16.0.0, SVG Export Plug-In . SVG Version: 6.00 Build 0)  -->
<!DOCTYPE svg PUBLIC "-//W3C//DTD SVG 1.1//EN" "http://www.w3.org/Graphics/SVG/1.1/DTD/svg11.dtd">
<svg version="1.1" id="Capa_1" xmlns="http://www.w3.org/2000/svg" xmlns:xlink="http://www.w3.org/1999/xlink" x="0px" y="0px"
	 width="155.624px" height="155.624px" viewBox="0 0 155.624 155.624" style="enable-background:new 0 0 155.624 155.624;"
	 xml:space="preserve">
<g>
	<g>
		<path d="M126.751,0H97.673c-1.992,0-3.623,1.619-3.623,3.62c0,2.008,1.62,3.62,3.623,3.62h20.312L92.956,32.276l-0.821,1.327
			c-5.349-4.314-11.866-6.774-18.825-6.774c-8.085,0-15.672,3.149-21.382,8.854c-5.486,5.491-8.309,12.597-8.689,19.809
			C32.663,60.208,25.257,70.783,25.257,83.07c0,15.546,11.85,28.258,26.969,29.91c-0.23,0.47-0.364,0.99-0.364,1.527v15.135H39.757
			c-2,0-3.619,1.619-3.619,3.622s1.619,3.623,3.619,3.623h12.105v15.124c0,1.998,1.62,3.612,3.625,3.612
			c1.999,0,3.619-1.614,3.619-3.612v-15.124h12.09c1.994,0,3.626-1.62,3.626-3.623s-1.632-3.622-3.626-3.622h-12.09v-15.135
			c0-0.549-0.14-1.058-0.369-1.527c14.607-1.592,26.034-13.5,26.82-28.34c3.351-1.488,6.446-3.535,9.116-6.187
			c10.998-11.012,11.601-28.361,2.068-40.232l1.347-0.818l25.03-25.037v20.312c0,2.005,1.62,3.631,3.632,3.631
			c1.991,0,3.616-1.625,3.616-3.631V3.608C130.375,1.619,128.755,0,126.751,0z M55.487,106.068
			c-12.677,0-22.986-10.31-22.986-22.982c0-8.382,4.555-15.66,11.297-19.679c1.16,5.51,3.85,10.783,8.118,15.051
			c5.71,5.724,13.297,8.863,21.371,8.863c1.62,0,3.202-0.219,4.785-0.471C76.27,97.729,66.866,106.068,55.487,106.068z
			 M50.667,60.646c1.547-0.342,3.156-0.534,4.809-0.534c11.379,0,20.794,8.345,22.597,19.237
			c-7.417,1.494-15.527-0.493-21.034-6.003C53.468,69.762,51.39,65.292,50.667,60.646z M89.543,73.325
			c-1.358,1.367-2.913,2.439-4.532,3.37C82.056,63.089,69.95,52.856,55.475,52.856c-1.652,0-3.222,0.235-4.785,0.482
			c0.744-4.578,2.834-8.983,6.359-12.501c4.33-4.331,10.115-6.717,16.248-6.717c6.138,0,11.907,2.386,16.233,6.717
			C98.504,49.792,98.504,64.379,89.543,73.325z"/>
	</g>
</g>
<g>
</g>
<g>
</g>
<g>
</g>
<g>
</g>
<g>
</g>
<g>
</g>
<g>
</g>
<g>
</g>
<g>
</g>
<g>
</g>
<g>
</g>
<g>
</g>
<g>
</g>
<g>
</g>
<g>
</g>
</svg>
