<?xml version="1.0" encoding="iso-8859-1"?>
<!-- Generator: Adobe Illustrator 16.0.0, SVG Export Plug-In . SVG Version: 6.00 Build 0)  -->
<!DOCTYPE svg PUBLIC "-//W3C//DTD SVG 1.1//EN" "http://www.w3.org/Graphics/SVG/1.1/DTD/svg11.dtd">
<svg version="1.1" id="Capa_1" xmlns="http://www.w3.org/2000/svg" xmlns:xlink="http://www.w3.org/1999/xlink" x="0px" y="0px"
	 width="545.062px" height="545.062px" viewBox="0 0 545.062 545.062" style="enable-background:new 0 0 545.062 545.062;"
	 xml:space="preserve">
<g>
	<g>
		<path d="M516.375,114.75H28.688C12.842,114.75,0,127.592,0,143.438v258.188c0,15.845,12.842,28.688,28.688,28.688h487.688
			c15.845,0,28.688-12.843,28.688-28.688V143.438C545.062,127.592,532.22,114.75,516.375,114.75z M248.625,344.25
			c0,15.845-12.842,28.688-28.688,28.688H86.062c-15.845,0-28.688-12.843-28.688-28.688v-153c0-15.845,12.842-28.688,28.688-28.688
			h133.875c15.845,0,28.688,12.842,28.688,28.688V344.25z M487.688,363.375c0,5.278-4.284,9.562-9.562,9.562H306
			c-5.278,0-9.562-4.284-9.562-9.562v-9.562c0-5.278,4.284-9.562,9.562-9.562h172.125c5.278,0,9.562,4.284,9.562,9.562V363.375z
			 M487.688,267.75c0,5.278-4.284,9.562-9.562,9.562H306c-5.278,0-9.562-4.284-9.562-9.562v-9.562c0-5.278,4.284-9.562,9.562-9.562
			h172.125c5.278,0,9.562,4.284,9.562,9.562V267.75z M487.688,181.688c0,5.278-4.284,9.562-9.562,9.562H306
			c-5.278,0-9.562-4.284-9.562-9.562v-9.562c0-5.278,4.284-9.562,9.562-9.562h172.125c5.278,0,9.562,4.284,9.562,9.562V181.688z"/>
	</g>
</g>
<g>
</g>
<g>
</g>
<g>
</g>
<g>
</g>
<g>
</g>
<g>
</g>
<g>
</g>
<g>
</g>
<g>
</g>
<g>
</g>
<g>
</g>
<g>
</g>
<g>
</g>
<g>
</g>
<g>
</g>
</svg>
