<?xml version="1.0" encoding="iso-8859-1"?>
<!-- Generator: Adobe Illustrator 16.0.0, SVG Export Plug-In . SVG Version: 6.00 Build 0)  -->
<!DOCTYPE svg PUBLIC "-//W3C//DTD SVG 1.1//EN" "http://www.w3.org/Graphics/SVG/1.1/DTD/svg11.dtd">
<svg version="1.1" id="Capa_1" xmlns="http://www.w3.org/2000/svg" xmlns:xlink="http://www.w3.org/1999/xlink" x="0px" y="0px"
	 width="167.515px" height="167.514px" viewBox="0 0 167.515 167.514" style="enable-background:new 0 0 167.515 167.514;"
	 xml:space="preserve">
<g>
	<path d="M158.23,63.678c-5.863-5.769-13.612-8.946-21.835-8.946c-3.995,0-7.867,0.798-11.479,2.228V26.104
		c0-13.098-10.657-23.758-23.755-23.758c-13.096,0-23.752,10.66-23.752,23.758v13.406c-4.413-0.429-8.887-0.688-13.341-0.688
		c-22.372,0-43.985,5.402-62.506,15.616c-1.034,0.573-1.64,1.693-1.555,2.878c3.438,46.317,26.812,86.486,62.53,107.44
		c0.47,0.272,1.005,0.414,1.531,0.414s1.058-0.142,1.531-0.414c19.73-11.585,36.07-29.418,47.266-51.595
		c0.189-0.379,0.29-0.793,0.313-1.194c1.158-0.686,2.24-1.478,3.274-2.364c5.609,4.711,12.549,7.412,19.948,7.412
		c8.411,0,16.297-3.299,22.201-9.304C170.631,95.475,170.46,75.715,158.23,63.678z M151.622,66.081l-34.755,35.323
		c-7.767-9.765-7.317-24.004,1.643-33.133c4.747-4.835,11.101-7.492,17.874-7.492C141.987,60.785,147.26,62.697,151.622,66.081z
		 M101.162,109.265c-9.759,0-17.7-7.938-17.7-17.709V60.767h34.646c-1.359,0.999-2.701,2.039-3.907,3.269
		c-11.159,11.361-11.691,29.105-1.956,41.222C109.106,107.817,105.275,109.265,101.162,109.265z M30.336,96.415h30.707v42.097
		C47.921,127.671,37.411,113.184,30.336,96.415z M77.41,90.363H67.095V59.47c3.455,0.085,6.901,0.328,10.314,0.715V90.363z
		 M61.042,90.363H27.898c-2.645-7.312-4.684-14.966-5.994-22.901c12.046-4.915,25.562-7.578,39.138-7.959V90.363z M67.095,96.415
		h10.823c1.421,6.821,5.828,12.496,11.729,15.794c-6.248,10.22-13.929,19.134-22.564,26.303L67.095,96.415L67.095,96.415z
		 M101.162,8.398c9.765,0,17.702,7.941,17.702,17.706v28.611H83.462V26.104C83.462,16.333,91.403,8.398,101.162,8.398z
		 M64.069,158.62C31.427,138.724,9.935,101.652,6.2,58.805c17.245-9.126,37.199-13.938,57.869-13.938
		c4.459,0,8.934,0.26,13.341,0.707v8.529c-4.335-0.473-8.704-0.769-13.092-0.769c-0.086-0.006-0.157-0.05-0.249-0.05
		c-0.121,0-0.225,0.056-0.34,0.068c-16.113,0.086-32.261,3.298-46.388,9.454c-1.253,0.544-1.983,1.865-1.785,3.213
		c4.962,33.783,22.003,63.401,46.74,81.276c0.053,0.035,0.127,0.023,0.186,0.059c0.467,0.302,0.993,0.508,1.587,0.508
		s1.12-0.206,1.59-0.508c0.056-0.035,0.127-0.023,0.183-0.059c11.511-8.311,21.619-19.66,29.509-32.793
		c1.874,0.484,3.795,0.804,5.811,0.804c1.3,0,2.571-0.16,3.83-0.372C94.767,133.405,80.755,148.436,64.069,158.62z M154.276,103.46
		c-4.753,4.823-11.106,7.495-17.893,7.495c-5.591,0-10.857-1.927-15.226-5.296l34.755-35.323
		C163.692,80.098,163.243,94.346,154.276,103.46z"/>
</g>
<g>
</g>
<g>
</g>
<g>
</g>
<g>
</g>
<g>
</g>
<g>
</g>
<g>
</g>
<g>
</g>
<g>
</g>
<g>
</g>
<g>
</g>
<g>
</g>
<g>
</g>
<g>
</g>
<g>
</g>
</svg>
