<?xml version="1.0" encoding="iso-8859-1"?>
<!-- Generator: Adobe Illustrator 16.0.0, SVG Export Plug-In . SVG Version: 6.00 Build 0)  -->
<!DOCTYPE svg PUBLIC "-//W3C//DTD SVG 1.1//EN" "http://www.w3.org/Graphics/SVG/1.1/DTD/svg11.dtd">
<svg version="1.1" id="Capa_1" xmlns="http://www.w3.org/2000/svg" xmlns:xlink="http://www.w3.org/1999/xlink" x="0px" y="0px"
	 width="46.457px" height="46.457px" viewBox="0 0 46.457 46.457" style="enable-background:new 0 0 46.457 46.457;"
	 xml:space="preserve">
<g>
	<path d="M42.154,18.254h1.504V14.95H30.372l1.35-2.373l-5.438-3.094L31.676,0L28.07,1.75l-3.762,6.611l-5.55-3.157L2.722,33.396
		l5.284,3.006l-1.449,2.547l-4.23-2.405l-2.028,3.562l11.176,6.352l2.027-3.561l-5.143-2.924l1.447-2.547l5.877,3.344l14.601-25.664
		v3.148h1.965l-3.715,5.624v22.55h17.625v-22.57L42.154,18.254z M15.007,38.305l-4.305-2.449l6.49-11.408l3.177,1.806l0.866-1.521
		l-7.483-4.251L12.886,22l2.504,1.424L8.9,34.831l-3.713-2.112L19.435,7.67l9.821,5.585L15.007,38.305z M44.158,44.428H30.533
		V24.479l4.111-6.225h5.053l4.461,6.244V44.428z M32.033,26.053h7.5v16.913h-7.5V26.053z M14.354,19.457l5.674-9.979l7.48,4.255
		l-1.191,2.099l-1.853-1.054l-0.56,0.981l1.853,1.055l-1.788,3.141l-1.776-1.01l-0.561,0.981l1.778,1.012l-1.577,2.773
		L14.354,19.457z M16.852,27.984l1.809,1.029l-0.559,0.981l-1.809-1.029L16.852,27.984z M14.835,31.764l1.809,1.029l-0.559,0.98
		l-1.809-1.029L14.835,31.764z"/>
</g>
<g>
</g>
<g>
</g>
<g>
</g>
<g>
</g>
<g>
</g>
<g>
</g>
<g>
</g>
<g>
</g>
<g>
</g>
<g>
</g>
<g>
</g>
<g>
</g>
<g>
</g>
<g>
</g>
<g>
</g>
</svg>
