<?xml version="1.0" encoding="utf-8"?>
<!-- Generator: Adobe Illustrator 14.0.0, SVG Export Plug-In . SVG Version: 6.00 Build 43363)  -->
<!DOCTYPE svg PUBLIC "-//W3C//DTD SVG 1.0//EN" "http://www.w3.org/TR/2001/REC-SVG-20010904/DTD/svg10.dtd">
<svg version="1.0" id="Layer_1" xmlns="http://www.w3.org/2000/svg" xmlns:xlink="http://www.w3.org/1999/xlink" x="0px" y="0px"
	 width="100px" height="99.999px" viewBox="0 0 100 99.999" enable-background="new 0 0 100 99.999" xml:space="preserve">
<path d="M79.832,28.398l8.851-8.852l8.123,8.125L100,0L72.328,3.193l8.125,8.123L71.6,20.168
	C54.154,6.77,28.988,8.038,13.021,24.005c-17.362,17.363-17.362,45.611,0,62.973c17.361,17.362,45.611,17.362,62.973,0
	C91.959,71.011,93.23,45.843,79.832,28.398z M21.251,78.746c-12.823-12.822-12.824-33.686,0-46.511
	c12.822-12.822,33.687-12.822,46.511,0c12.823,12.825,12.823,33.689,0,46.511C54.938,91.569,34.074,91.569,21.251,78.746z"/>
</svg>
