<?xml version="1.0" encoding="iso-8859-1"?>
<!-- Generator: Adobe Illustrator 16.0.0, SVG Export Plug-In . SVG Version: 6.00 Build 0)  -->
<!DOCTYPE svg PUBLIC "-//W3C//DTD SVG 1.1//EN" "http://www.w3.org/Graphics/SVG/1.1/DTD/svg11.dtd">
<svg version="1.1" id="Capa_1" xmlns="http://www.w3.org/2000/svg" xmlns:xlink="http://www.w3.org/1999/xlink" x="0px" y="0px"
	 width="92.511px" height="92.511px" viewBox="0 0 92.511 92.511" style="enable-background:new 0 0 92.511 92.511;"
	 xml:space="preserve">
<g>
	<g>
		<path d="M73.301,11.349H63.204v-1.231c0-1.465-1.192-2.656-2.656-2.656H53.59V2.656C53.59,1.191,52.398,0,50.934,0h-9.358
			c-1.464,0-2.656,1.191-2.656,2.656v4.805h-6.958c-1.464,0-2.656,1.191-2.656,2.656v1.231H19.209c-2.088,0-3.787,1.699-3.787,3.787
			v73.59c0,2.088,1.699,3.786,3.787,3.786h54.093c2.088,0,3.787-1.698,3.787-3.786V15.136
			C77.088,13.048,75.389,11.349,73.301,11.349z M42.494,3.225c0-0.156,0.126-0.281,0.282-0.281h6.957
			c0.156,0,0.283,0.125,0.283,0.281v3.57h-7.521v-3.57H42.494z M72.22,86.922c0,0.293-0.237,0.529-0.53,0.529H20.821
			c-0.293,0-0.531-0.236-0.531-0.529V17.48c0-0.292,0.238-0.53,0.531-0.53h8.817V21c0,1.436,1.168,2.604,2.604,2.604h28.024
			c1.436,0,2.604-1.169,2.604-2.604v-4.05h8.817c0.293,0,0.53,0.238,0.53,0.53v69.442H72.22z"/>
		<path d="M46.23,57.775L46.23,57.775c0.004,0,0.009,0,0.014,0c0.001,0,0.005,0,0.008,0c0,0,0.002,0,0.003,0s0.003,0,0.003,0
			c0.003,0,0.007,0,0.008,0c0.004,0,0.009,0,0.014,0l0,0c5.271,0.08,8.475-4.535,8.558-12.141c0.055-5.277-3.219-8.294-8.548-8.437
			v-0.002c-0.008,0-0.015,0-0.023,0c-0.004,0-0.008,0-0.011,0s-0.008,0-0.011,0c-0.008,0-0.015,0-0.022,0v0.002
			c-5.33,0.143-8.603,3.159-8.549,8.437C37.755,53.24,40.959,57.855,46.23,57.775z"/>
		<path d="M58.348,62.656c-0.398-0.666-0.992-1.142-1.66-1.416l-4.521-2.082l-2.174-1.832l-3.732,3.713l-3.742-3.713l-2.173,1.832
			l-4.521,2.082c-0.669,0.274-1.263,0.75-1.661,1.416l-6.598,11.031c-0.323,0.541-0.484,1.147-0.488,1.756h38.359
			c-0.005-0.607-0.166-1.215-0.488-1.756L58.348,62.656z"/>
	</g>
</g>
<g>
</g>
<g>
</g>
<g>
</g>
<g>
</g>
<g>
</g>
<g>
</g>
<g>
</g>
<g>
</g>
<g>
</g>
<g>
</g>
<g>
</g>
<g>
</g>
<g>
</g>
<g>
</g>
<g>
</g>
</svg>
