<?xml version="1.0" encoding="iso-8859-1"?>
<!-- Generator: Adobe Illustrator 16.0.0, SVG Export Plug-In . SVG Version: 6.00 Build 0)  -->
<!DOCTYPE svg PUBLIC "-//W3C//DTD SVG 1.1//EN" "http://www.w3.org/Graphics/SVG/1.1/DTD/svg11.dtd">
<svg version="1.1" id="Capa_1" xmlns="http://www.w3.org/2000/svg" xmlns:xlink="http://www.w3.org/1999/xlink" x="0px" y="0px"
	 width="572.342px" height="572.342px" viewBox="0 0 572.342 572.342" style="enable-background:new 0 0 572.342 572.342;"
	 xml:space="preserve">
<g>
	<g>
		<path d="M90.839,572.342h390.669c20.748,0,37.564-16.817,37.564-37.564V281.306c0-20.747-16.816-37.564-37.564-37.564h-56.113
			v74.719c22.105,6.604,38.268,27.094,38.268,51.316v40.82h-30.6v-40.82c0-12.669-10.307-22.969-22.969-22.969
			s-22.969,10.307-22.969,22.969v40.82h-30.6v-40.82c0-24.223,16.17-44.713,38.27-51.316v-72.871
			c-27.92,27.674-66.305,44.798-108.625,44.798c-40.765,0-77.865-15.912-105.49-41.818v81.58
			c19.945,6.469,34.413,25.208,34.413,47.277c0,27.411-22.301,49.712-49.713,49.712s-49.713-22.301-49.713-49.712
			c0-22.075,14.468-40.809,34.413-47.277v-86.408H90.833c-20.747,0-37.564,16.817-37.564,37.564v253.472
			C53.275,555.524,70.093,572.342,90.839,572.342z"/>
		<path d="M192.486,234.561c3.403,3.237,6.971,6.304,10.698,9.18c22.968,17.717,51.732,28.287,82.987,28.287
			c31.255,0,60.019-10.563,82.988-28.287c3.727-2.876,7.295-5.943,10.697-9.18c3.072-2.925,6.01-5.985,8.801-9.18
			c20.863-23.904,33.531-55.147,33.531-89.37C422.188,60.894,361.294,0,286.178,0c-75.117,0-136.011,60.894-136.011,136.011
			c0,34.223,12.668,65.465,33.532,89.37C186.477,228.582,189.408,231.642,192.486,234.561z"/>
		<path d="M146.268,377.433c0,10.538,8.574,19.112,19.113,19.112s19.113-8.574,19.113-19.112c0-5.875-2.717-11.071-6.903-14.578
			c-3.323-2.784-7.546-4.535-12.209-4.535s-8.892,1.744-12.209,4.535C148.985,366.361,146.268,371.558,146.268,377.433z"/>
	</g>
</g>
<g>
</g>
<g>
</g>
<g>
</g>
<g>
</g>
<g>
</g>
<g>
</g>
<g>
</g>
<g>
</g>
<g>
</g>
<g>
</g>
<g>
</g>
<g>
</g>
<g>
</g>
<g>
</g>
<g>
</g>
</svg>
