<?xml version="1.0" encoding="iso-8859-1"?>
<!-- Generator: Adobe Illustrator 17.1.0, SVG Export Plug-In . SVG Version: 6.00 Build 0)  -->
<!DOCTYPE svg PUBLIC "-//W3C//DTD SVG 1.1//EN" "http://www.w3.org/Graphics/SVG/1.1/DTD/svg11.dtd">
<svg version="1.1" id="Capa_1" xmlns="http://www.w3.org/2000/svg" xmlns:xlink="http://www.w3.org/1999/xlink" x="0px" y="0px"
	 viewBox="0 0 197.244 197.244" style="enable-background:new 0 0 197.244 197.244;" xml:space="preserve">
<path d="M133.88,197.244c-23.1-2.466-41.05-21.728-40.863-44.897c0.185-22.853,18.098-41.724,40.863-44.152V197.244z
	 M143.88,108.193v89.048c22.765-2.428,40.677-21.299,40.862-44.152C184.93,129.921,166.98,110.659,143.88,108.193z M66.487,38.057
	L27.524,64.552c-7.577,5.152-12.693,12.946-14.408,21.946s0.179,18.13,5.331,25.706l1.776,2.612
	c6.394,9.403,17.008,15.017,28.394,15.017c6.885,0,13.544-2.054,19.259-5.939l38.964-26.495L66.487,38.057z M163.149,17.628
	l-1.776-2.612C154.98,5.614,144.365,0,132.98,0c-6.885,0-13.545,2.054-19.259,5.939L74.757,32.434l40.351,59.341l38.964-26.495
	C169.712,54.646,173.784,33.269,163.149,17.628z"/>
<g>
</g>
<g>
</g>
<g>
</g>
<g>
</g>
<g>
</g>
<g>
</g>
<g>
</g>
<g>
</g>
<g>
</g>
<g>
</g>
<g>
</g>
<g>
</g>
<g>
</g>
<g>
</g>
<g>
</g>
</svg>
