<?xml version="1.0" encoding="iso-8859-1"?>
<!-- Generator: Adobe Illustrator 18.1.1, SVG Export Plug-In . SVG Version: 6.00 Build 0)  -->
<svg version="1.1" id="Capa_1" xmlns="http://www.w3.org/2000/svg" xmlns:xlink="http://www.w3.org/1999/xlink" x="0px" y="0px"
	 viewBox="0 0 612 612" style="enable-background:new 0 0 612 612;" xml:space="preserve">
<g>
	<g>
		<path d="M208.725,223.513v95.343c3.079,1.093,6.137,2.268,9.163,3.548c19.734,8.347,37.451,20.29,52.659,35.498
			c2.872,2.872,5.627,5.835,8.264,8.882V262.811c0-10.59,8.585-19.175,19.175-19.175h208.302c10.589,0,19.175,8.584,19.175,19.175
			v234.45c0,10.589-8.585,19.175-19.175,19.175H313.871c-2.025,7.863-4.633,15.585-7.826,23.135
			c-8.347,19.734-20.29,37.452-35.498,52.659c-1.191,1.191-2.404,2.355-3.625,3.506h309.454c10.589,0,19.175-8.585,19.175-19.175
			V223.513c0-35.299-28.616-63.915-63.915-63.915h-12.911c-11.165,0-20.217-9.052-20.217-20.217v-22.794H305.768v22.794
			c0,11.166-9.052,20.217-20.217,20.217H272.64C237.341,159.598,208.725,188.214,208.725,223.513z"/>
		<path d="M305.768,86.261h192.739h7.782c10.589,0,19.175-8.585,19.175-19.175V19.175C525.463,8.585,516.878,0,506.289,0H297.986
			c-10.589,0-19.175,8.585-19.175,19.175v47.912c0,10.589,8.585,19.175,19.175,19.175H305.768z"/>
		<path d="M153.383,338.133c-32.633,0-62.594,11.422-86.119,30.477L208.725,510.07l51.115,51.115
			c11.649-14.382,20.441-31.168,25.518-49.502c3.227-11.656,4.959-23.933,4.959-36.616c0-19.564-4.112-38.166-11.505-55.001
			c-13.741-31.29-38.841-56.456-70.087-70.279C191.801,342.3,173.08,338.133,153.383,338.133z"/>
		<path d="M16.45,475.067C16.45,550.693,77.757,612,153.383,612c24.467,0,47.432-6.424,67.311-17.668
			c6.634-3.752,12.922-8.041,18.808-12.809l-30.777-30.777L46.927,388.948C27.872,412.474,16.45,442.434,16.45,475.067z"/>
	</g>
</g>
<g>
</g>
<g>
</g>
<g>
</g>
<g>
</g>
<g>
</g>
<g>
</g>
<g>
</g>
<g>
</g>
<g>
</g>
<g>
</g>
<g>
</g>
<g>
</g>
<g>
</g>
<g>
</g>
<g>
</g>
</svg>
