<?xml version="1.0" encoding="iso-8859-1"?>
<!-- Generator: Adobe Illustrator 16.0.0, SVG Export Plug-In . SVG Version: 6.00 Build 0)  -->
<!DOCTYPE svg PUBLIC "-//W3C//DTD SVG 1.1//EN" "http://www.w3.org/Graphics/SVG/1.1/DTD/svg11.dtd">
<svg version="1.1" id="Capa_1" xmlns="http://www.w3.org/2000/svg" xmlns:xlink="http://www.w3.org/1999/xlink" x="0px" y="0px"
	 width="31.947px" height="31.947px" viewBox="0 0 31.947 31.947" style="enable-background:new 0 0 31.947 31.947;"
	 xml:space="preserve">
<g>
	<g>
		<path d="M15.836,0C11.341,0,7.187,1.949,3.805,4.816c-1.732,1.469-2.318,3.892-1.444,5.988l2.064,4.95
			c1.973-4.335,6.34-7.349,11.411-7.349c5.195,0,9.651,3.16,11.551,7.662l2.199-5.275c0.87-2.088,0.296-4.497-1.422-5.969
			C24.732,1.88,20.467,0,15.836,0z M18.323,5.63h-1.448v1.519h-2.022V5.63h-1.521V3.605h1.521v-1.52h2.022v1.52h1.448V5.63z"/>
		<path d="M21.398,11.43c-0.001,0.001-0.003,0.003-0.003,0.004c0,0-3.613,5.666-9.809,7.72c-0.249,0.082-0.522-0.01-0.67-0.229
			c-0.146-0.217-0.132-0.506,0.038-0.706c0.273-0.321,0.55-0.68,0.794-1.057c0.179-0.277,0.169-0.636-0.025-0.903
			c-0.194-0.267-0.533-0.386-0.853-0.3c-1.904,0.512-4.984,1.946-6.003,5.93c0.484,5.634,5.209,10.058,10.968,10.058
			c6.083,0,11.013-4.93,11.013-11.014C26.849,16.882,24.658,13.342,21.398,11.43z"/>
	</g>
</g>
<g>
</g>
<g>
</g>
<g>
</g>
<g>
</g>
<g>
</g>
<g>
</g>
<g>
</g>
<g>
</g>
<g>
</g>
<g>
</g>
<g>
</g>
<g>
</g>
<g>
</g>
<g>
</g>
<g>
</g>
</svg>
