<?xml version="1.0" encoding="UTF-8" ?>
<!DOCTYPE svg PUBLIC "-//W3C//DTD SVG 1.1//EN" "http://www.w3.org/Graphics/SVG/1.1/DTD/svg11.dtd">
<svg width="200pt" height="200pt" viewBox="0 0 200 200" version="1.1" xmlns="http://www.w3.org/2000/svg">
<path fill="#ffffff" d=" M 0.00 0.00 L 200.00 0.00 L 200.00 200.00 L 0.00 200.00 L 0.00 0.00 Z" />
<path fill="#6a2071" d=" M 53.56 14.01 C 60.57 14.01 67.58 13.97 74.59 14.03 C 82.92 28.41 91.24 42.79 99.35 57.29 C 108.12 42.94 116.33 28.24 125.12 13.93 C 131.99 14.07 138.87 13.99 145.75 13.97 C 130.08 40.42 114.97 67.22 99.37 93.72 C 84.36 67.00 68.60 40.70 53.56 14.01 Z" />
<path fill="#e3372b" d=" M 47.43 18.32 C 63.02 44.83 78.04 71.71 93.58 98.25 C 62.91 98.22 32.23 98.32 1.56 98.28 C 4.76 91.95 8.83 86.09 11.93 79.72 C 28.67 79.74 45.40 79.85 62.13 79.80 C 55.61 69.51 50.12 58.56 43.89 48.07 C 41.83 44.02 39.24 40.27 37.34 36.14 C 40.56 30.13 44.27 24.38 47.43 18.32 Z" />
<path fill="#e86e19" d=" M 105.82 97.84 C 120.90 71.15 136.54 44.75 151.56 18.03 C 155.55 23.91 158.46 30.45 162.52 36.29 C 153.97 50.55 145.59 64.95 137.45 79.45 C 154.03 79.55 170.60 79.74 187.17 79.85 C 191.14 85.65 194.10 92.08 198.00 97.94 C 167.27 98.05 136.54 97.93 105.82 97.84 Z" />
<path fill="#efad1a" d=" M 1.57 105.03 C 32.25 105.05 62.93 105.16 93.61 105.12 C 77.85 131.39 63.16 158.35 47.42 184.63 C 44.16 178.49 40.25 172.70 37.17 166.46 C 45.13 151.83 53.72 137.50 62.19 123.15 C 45.30 122.86 28.41 122.89 11.53 122.64 C 8.48 116.62 4.77 110.96 1.57 105.03 Z" />
<path fill="#7bc631" d=" M 105.96 105.10 C 136.66 105.12 167.36 105.01 198.06 105.08 C 193.92 110.78 191.17 117.36 187.15 123.14 C 170.60 123.07 154.05 122.98 137.51 123.04 C 145.58 137.72 153.78 152.36 162.23 166.83 C 158.53 172.69 155.49 178.94 151.64 184.71 C 136.56 158.09 121.19 131.63 105.96 105.10 Z" />
</svg>
