<?xml version="1.0" encoding="UTF-8" standalone="no"?>
<svg
   xmlns:dc="http://purl.org/dc/elements/1.1/"
   xmlns:cc="http://creativecommons.org/ns#"
   xmlns:rdf="http://www.w3.org/1999/02/22-rdf-syntax-ns#"
   xmlns:svg="http://www.w3.org/2000/svg"
   xmlns="http://www.w3.org/2000/svg"
   xmlns:sodipodi="http://sodipodi.sourceforge.net/DTD/sodipodi-0.dtd"
   xmlns:inkscape="http://www.inkscape.org/namespaces/inkscape"
   viewBox="0 -256 1792 1792"
   id="svg3025"
   version="1.1"
   inkscape:version="0.48.3.1 r9886"
   width="100%"
   height="100%"
   sodipodi:docname="stethoscope_font_awesome.svg">
  <metadata
     id="metadata3035">
    <rdf:RDF>
      <cc:Work
         rdf:about="">
        <dc:format>image/svg+xml</dc:format>
        <dc:type
           rdf:resource="http://purl.org/dc/dcmitype/StillImage" />
      </cc:Work>
    </rdf:RDF>
  </metadata>
  <defs
     id="defs3033" />
  <sodipodi:namedview
     pagecolor="#ffffff"
     bordercolor="#666666"
     borderopacity="1"
     objecttolerance="10"
     gridtolerance="10"
     guidetolerance="10"
     inkscape:pageopacity="0"
     inkscape:pageshadow="2"
     inkscape:window-width="640"
     inkscape:window-height="480"
     id="namedview3031"
     showgrid="false"
     inkscape:zoom="0.13169643"
     inkscape:cx="896"
     inkscape:cy="896"
     inkscape:window-x="0"
     inkscape:window-y="25"
     inkscape:window-maximized="0"
     inkscape:current-layer="svg3025" />
  <g
     transform="matrix(1,0,0,-1,205.01695,1262.6441)"
     id="g3027">
    <path
       d="m 1280,832 q 0,26 -19,45 -19,19 -45,19 -26,0 -45,-19 -19,-19 -19,-45 0,-26 19,-45 19,-19 45,-19 26,0 45,19 19,19 19,45 z m 128,0 q 0,-62 -35.5,-111 Q 1337,672 1280,651 V 256 Q 1280,97 1148.5,-15.5 1017,-128 832,-128 647,-128 515.5,-15.5 384,97 384,256 V 388 Q 220,408 110,516 0,624 0,768 v 512 q 0,26 19,45 19,19 45,19 6,0 16,-2 17,30 47,48 30,18 65,18 53,0 90.5,-37.5 Q 320,1333 320,1280 320,1227 282.5,1189.5 245,1152 192,1152 q -33,0 -64,18 V 768 q 0,-106 94,-181 94,-75 226,-75 132,0 226,75 94,75 94,181 v 402 q -31,-18 -64,-18 -53,0 -90.5,37.5 -37.5,37.5 -37.5,90.5 0,53 37.5,90.5 37.5,37.5 90.5,37.5 35,0 65,-18 30,-18 47,-48 10,2 16,2 26,0 45,-19 19,-19 19,-45 V 768 Q 896,624 786,516 676,408 512,388 V 256 Q 512,150 606,75 700,0 832,0 q 132,0 226,75 94,75 94,181 v 395 q -57,21 -92.5,70 -35.5,49 -35.5,111 0,80 56,136 56,56 136,56 80,0 136,-56 56,-56 56,-136 z"
       id="path3029"
       inkscape:connector-curvature="0"
       style="fill:currentColor" />
  </g>
</svg>
