<?xml version="1.0" encoding="utf-8"?>
<!-- Generator: Adobe Illustrator 14.0.0, SVG Export Plug-In . SVG Version: 6.00 Build 43363)  -->
<!DOCTYPE svg PUBLIC "-//W3C//DTD SVG 1.0//EN" "http://www.w3.org/TR/2001/REC-SVG-20010904/DTD/svg10.dtd">
<svg version="1.0" id="Layer_1" xmlns="http://www.w3.org/2000/svg" xmlns:xlink="http://www.w3.org/1999/xlink" x="0px" y="0px"
	 width="100px" height="98.561px" viewBox="0 0 100 98.561" enable-background="new 0 0 100 98.561" xml:space="preserve">
<path d="M3.799,3.57C3.624,3.251,3.74,2.851,4.059,2.679l4.769-2.598c0.317-0.175,0.713-0.06,0.889,0.263l1.912,3.489
	c7.229-2.167,15.241,0.915,19.003,7.804l-9.24,5.045c1.527,2.794,0.494,6.304-2.305,7.836c-2.805,1.525-6.311,0.495-7.843-2.3
	l-9.244,5.038c-3.766-6.886-2.035-15.29,3.709-20.194L3.799,3.57z"/>
<rect x="68.902" y="66.415" width="31.098" height="32.146"/>
<path d="M65.336,82.482H40.221c-4.379,0-7.941-3.555-7.941-7.934c0-4.387,3.562-7.935,7.941-7.935h25.115V82.482z"/>
<path d="M11.187,88.92c0-1.774,1.438-3.216,3.213-3.216h50.937v12.856H11.187V88.92z"/>
<ellipse cx="20.907" cy="72.904" rx="9.594" ry="9.578"/>
<path d="M82.938,46.08l-5.396-15.363c-1.046-2.896-3.057-5.157-8.731-5.157H43.899c-5.671,0-7.685,2.261-8.728,5.157L29.777,46.08
	c-0.403,0.992-0.614,3.222,1.583,4.716l12.687,8.357c1.849,1.224,4.347,0.712,5.569-1.136s0.712-4.347-1.145-5.567l-6.095-4.018
	l-3.972-2.619l2.834-7.818h3.923l-2.298,6.342l7.643,5.038c1.716,1.132,2.893,2.865,3.303,4.88c0.417,2.016,0.021,4.074-1.113,5.792
	c-0.452,0.684-1.01,1.266-1.63,1.764h10.583c-0.621-0.498-1.175-1.08-1.633-1.764c-1.132-1.718-1.528-3.776-1.114-5.792
	c0.413-2.016,1.59-3.748,3.304-4.88l7.648-5.038l-2.307-6.342h3.927l2.84,7.818l-3.973,2.619L64.24,52.45
	c-1.851,1.221-2.368,3.72-1.143,5.567s3.72,2.359,5.573,1.136l12.683-8.357C83.546,49.302,83.34,47.072,82.938,46.08z"/>
<path d="M58.835,10.522c-0.602,1.301-1.916,2.205-3.443,2.205c-1.53,0-2.847-0.904-3.45-2.205h-6.949
	c-0.112,0.61-0.179,1.234-0.179,1.879c0,5.855,4.756,10.602,10.617,10.602c5.863,0,10.615-4.747,10.615-10.602
	c0-0.645-0.068-1.269-0.177-1.879H58.835z"/>
<path d="M51.707,8.019c0.413-1.645,1.901-2.872,3.685-2.872c1.775,0,3.274,1.227,3.678,2.872h6.021
	c-1.671-3.667-5.362-6.223-9.66-6.223c-4.295,0-7.991,2.556-9.661,6.223H51.707z"/>
</svg>
