<?xml version="1.0" encoding="iso-8859-1"?>
<!-- Generator: Adobe Illustrator 17.1.0, SVG Export Plug-In . SVG Version: 6.00 Build 0)  -->
<!DOCTYPE svg PUBLIC "-//W3C//DTD SVG 1.1//EN" "http://www.w3.org/Graphics/SVG/1.1/DTD/svg11.dtd">
<svg version="1.1" id="Capa_1" xmlns="http://www.w3.org/2000/svg" xmlns:xlink="http://www.w3.org/1999/xlink" x="0px" y="0px"
	 viewBox="0 0 184.591 184.591" style="enable-background:new 0 0 184.591 184.591;" xml:space="preserve">
<path d="M140.849,17.713c-2.088-0.401-4.177-0.605-6.207-0.605c-12.938,0-21.693,7.898-26.021,23.477
	c-5.767,20.76,6.013,28.51,8.433,29.853c0.393,0.217,0.752,0.418,1.098,0.63c0.818,0.5,1.601,1.012,2.326,1.521
	c0.279,0.195,0.544,0.394,0.812,0.592c-8.906,4.275-21.331,15.865-21.428,38.132c-0.076,17.557-0.059,33.007-0.031,42.876
	c0.021,7.331,6.004,13.296,13.339,13.296c7.355,0,13.339-5.983,13.339-13.339v-6.514c3.363,1.489,7.558,2.496,12.773,2.496
	c0.625,0,1.264-0.015,1.909-0.045c26.572-1.222,40.562-12.284,43.28-69.359C186.797,31.873,154.739,20.385,140.849,17.713z
	 M118.48,110.968c-3.207,2.583-5.38,6.028-6.119,9.7c-1.278,6.341,0.31,13.408,4.146,18.835v14.64c0,1.841-1.498,3.339-3.339,3.339
	c-1.836,0-3.334-1.491-3.339-3.323c-0.027-9.854-0.045-25.278,0.031-42.806c0.105-24.198,17.112-29.761,17.915-30.01
	c0.303-0.09,0.588-0.213,0.859-0.352c1.532,2.615,2.362,5.391,2.461,8.316C131.426,99.043,123.333,107.057,118.48,110.968z
	 M63.995,72.673c0.042-0.029,0.08-0.059,0.121-0.088c0.732-0.513,1.514-1.022,2.321-1.517c0.348-0.213,0.707-0.414,1.063-0.61
	c2.456-1.363,14.235-9.113,8.47-29.873C71.643,25.006,62.889,17.108,49.95,17.108c-2.03,0-4.119,0.204-6.207,0.605
	C29.852,20.384-2.205,31.873,0.12,80.722c2.719,57.074,16.708,68.137,43.28,69.358c0.646,0.03,1.285,0.045,1.91,0.045h0.003
	c6.196,0,10.949-1.423,14.576-3.386v7.405c0,7.355,5.984,13.339,13.34,13.339c7.335,0,13.318-5.965,13.339-13.295
	c0.023-7.96,0.05-24.114-0.031-42.877C86.436,88.099,72.937,76.488,63.995,72.673z M76.568,154.16
	c-0.005,1.832-1.503,3.323-3.339,3.323c-1.842,0-3.34-1.498-3.34-3.339v-17.629c2.498-4.892,3.395-10.616,2.341-15.847
	c-0.74-3.672-2.913-7.117-6.119-9.7c-4.853-3.91-12.945-11.924-12.616-21.659c0.11-3.277,1.134-6.367,3.042-9.252
	c0.565,0.573,1.259,1.033,2.08,1.286c0.728,0.224,17.815,5.754,17.921,30.011C76.618,130.085,76.592,146.212,76.568,154.16z"/>
<g>
</g>
<g>
</g>
<g>
</g>
<g>
</g>
<g>
</g>
<g>
</g>
<g>
</g>
<g>
</g>
<g>
</g>
<g>
</g>
<g>
</g>
<g>
</g>
<g>
</g>
<g>
</g>
<g>
</g>
</svg>
