<?xml version="1.0" encoding="iso-8859-1"?>
<!-- Generator: Adobe Illustrator 18.1.1, SVG Export Plug-In . SVG Version: 6.00 Build 0)  -->
<svg version="1.1" id="Capa_1" xmlns="http://www.w3.org/2000/svg" xmlns:xlink="http://www.w3.org/1999/xlink" x="0px" y="0px"
	 viewBox="0 0 294.244 294.244" style="enable-background:new 0 0 294.244 294.244;" xml:space="preserve">
<g>
	<path style="fill:#010002;" d="M240.282,180.796L146.303,0L53.071,180.796c-18.646,63.273,41.905,113.448,93.602,113.448
		C198.376,294.244,261.912,244.982,240.282,180.796z M145.731,273.903c-1.307,0.113-2.673,0.03-3.908-0.191
		c0,0-1.76-0.322-4.845-0.877c-0.776-0.143-1.629-0.304-2.566-0.477c-1.181-0.28-2.458-0.597-3.825-0.919
		c-2.733-0.662-5.782-1.438-8.622-2.637c-1.462-0.561-2.983-1.146-4.559-1.754c-1.51-0.746-3.067-1.522-4.672-2.315
		c-3.234-1.456-6.295-3.693-9.535-5.674c-3.019-2.381-6.229-4.606-9.01-7.453c-2.96-2.602-5.49-5.728-8.061-8.682
		c-2.297-3.234-4.666-6.319-6.45-9.72c-2.023-3.222-3.377-6.749-4.869-9.965c-1.092-3.431-2.429-6.564-3.019-9.768
		c-0.358-1.563-0.704-3.085-1.038-4.559c-0.191-1.492-0.376-2.924-0.555-4.314c-0.442-2.727-0.459-5.269-0.495-7.488
		c-0.113-2.214-0.054-4.135,0.131-5.722c0.251-3.133,0.394-4.917,0.394-4.917s0.322,1.76,0.883,4.833
		c0.221,1.539,0.65,3.359,1.313,5.412c0.591,2.059,1.217,4.368,2.297,6.755c0.489,1.193,0.996,2.44,1.522,3.729
		c0.65,1.235,1.325,2.494,2.011,3.801c1.235,2.643,3.192,5.096,4.845,7.733c2.053,2.417,3.896,5.024,6.313,7.226
		c2.172,2.381,4.821,4.35,7.262,6.414c2.715,1.784,5.251,3.67,8.073,5.03c2.649,1.593,5.573,2.566,8.181,3.729
		c2.822,0.764,5.346,1.826,7.96,2.184c1.265,0.245,2.488,0.501,3.676,0.734c1.205,0.119,2.369,0.221,3.485,0.328
		c2.279,0.328,4.069,0.197,5.627,0.149c0.776,0,1.498,0,2.166-0.012c0.937-0.072,1.796-0.137,2.572-0.197
		c3.127-0.263,4.911-0.4,4.911-0.4c8.282-0.662,15.538,5.507,16.2,13.789C160.188,265.991,154.013,273.247,145.731,273.903z"/>
</g>
<g>
</g>
<g>
</g>
<g>
</g>
<g>
</g>
<g>
</g>
<g>
</g>
<g>
</g>
<g>
</g>
<g>
</g>
<g>
</g>
<g>
</g>
<g>
</g>
<g>
</g>
<g>
</g>
<g>
</g>
</svg>
