<?xml version="1.0" encoding="iso-8859-1"?>
<!-- Generator: Adobe Illustrator 18.1.1, SVG Export Plug-In . SVG Version: 6.00 Build 0)  -->
<svg version="1.1" id="Capa_1" xmlns="http://www.w3.org/2000/svg" xmlns:xlink="http://www.w3.org/1999/xlink" x="0px" y="0px"
	 viewBox="0 0 23.303 23.303" style="enable-background:new 0 0 23.303 23.303;" xml:space="preserve">
<g>
	<g>
		<polygon style="fill:#010002;" points="3.855,10.853 4.752,14.191 6.072,14.191 7.741,9.003 6.384,9.003 5.394,12.403 
			4.526,9.003 3.201,9.003 2.306,12.403 1.334,9.003 0,9.003 1.642,14.191 2.978,14.191 		"/>
		<polygon style="fill:#010002;" points="12.307,9.003 10.983,9.003 10.087,12.403 9.111,9.003 7.777,9.003 9.422,14.191 
			10.759,14.191 11.637,10.853 12.536,14.191 13.854,14.191 15.523,9.003 14.169,9.003 13.174,12.403 		"/>
		<polygon style="fill:#010002;" points="21.946,9.003 20.953,12.403 20.087,9.003 18.76,9.003 17.864,12.403 16.893,9.003 
			15.557,9.003 17.203,14.191 18.538,14.191 19.416,10.853 20.312,14.191 21.634,14.191 23.303,9.003 		"/>
		<path style="fill:#010002;" d="M11.651,1.658c-4.013,0-7.465,2.372-9.053,5.784h18.107C19.115,4.03,15.664,1.658,11.651,1.658z"/>
		<path style="fill:#010002;" d="M11.651,21.645c4.014,0,7.462-2.371,9.053-5.784H2.6C4.188,19.273,7.638,21.645,11.651,21.645z"/>
	</g>
</g>
<g>
</g>
<g>
</g>
<g>
</g>
<g>
</g>
<g>
</g>
<g>
</g>
<g>
</g>
<g>
</g>
<g>
</g>
<g>
</g>
<g>
</g>
<g>
</g>
<g>
</g>
<g>
</g>
<g>
</g>
</svg>
